<svg id="a32fc975-3a30-4305-beac-d8fff863b172" data-name="a5595d22-8e44-4248-a11c-23b0f8fbc8e9" xmlns="http://www.w3.org/2000/svg" viewBox="0 0 581.38 54.9"  opacity="0.3">
  <g id="ee40ec56-805e-4038-a365-b2ac1c1d15ce" data-name="a21f1594-f22d-45d7-9c84-aced800cb753">
    <path d="M472.37,21.75l-2.55,3.05,2.55-5V17.62l-4.74,5.65,4.19-8.19.55-.65V12.67l-.24.47-1.43-1.68,1-2,.67.79v-1L472,8.89l.37-.72V6.82l-.8,1.56L470.15,6.7l1-2,1.23,1.44V5.23l-.92-1.08.92-1.79V1.08l-.89-1h-.81L472,1.69l-1,2L469.6,2l1-1.92h-.69l-.72,1.41L468,.05h-1.07L466,1.83,464.62.2l.08-.2h-1l.21.24-1,2L461.45.56l.27-.53h-1.53l.52.62-1,2L458.29.94l.46-.89h-.69l-.2.38-.33-.38h-.81l.53.62-2-.62h-2l2.49,3-3.66-1.15L450.56.05h-.81L451,1.49,447.32.34l-.25-.29h-2.73L447,.88l2.5,2.94-3.67-1.15L444.6,1.26V2.2l.09.11-2.93-.92a.32.32,0,0,0-.37.15l-8.87,17.31-15.72-5v.64l15.78,5a.32.32,0,0,0,.37-.15L441.82,2l3.61,1.14L447.85,6l-4.8-1.51a.32.32,0,0,0-.37.15L433.82,22l-17-5.37v.65l17.09,5.39a.32.32,0,0,0,.37-.15L443.13,5.2l1.48.47V6.3l1.75,2.06-1.95-.62a.32.32,0,0,0-.37.15L435.17,25.2l-18.35-5.79v.64l18.42,5.81a.32.32,0,0,0,.37-.15L444.48,8.4l2.64.83,2.5,2.94L446,11l-1.34-1.6v1l.71.83-8.51,16.6h.69L444.62,14v.34l.15-.18a.3.3,0,0,0,0-.4h0l1-2L447.62,14l-.28.34-.25-.08a.32.32,0,0,0-.37.15l-.87,1.7-1.23,1.46v.92l-4.8,9.41h.69l5.87-11.46,1.18-1.4,2.13.66-1.54,1.8a.28.28,0,0,0-.09.1h0l-3.42,4.08v1L446.79,20l-4,7.8h.69l5-9.77,2.08.66-5.94,7.08v1l4.36-5.2-3.21,6.27h1.44l4.9-5.84,2.12.67-1.43,1.7-1.7-.54a.32.32,0,0,0-.37.15l-2,3.84h.69l1.7-3.33,1.21.38-2.46,2.95h.81l2.3-2.75,2.11.67-1.43,1.7L452.4,27a.32.32,0,0,0-.37.15l-.31.62h.69l0-.11.33.11h2l-.55-.17,1.43-1.71,2.12.67-1,1.21h.81l.84-1,2.12.67-.29.34h.81l.11-.14.43.14h2.05l-2.05-.65,1.43-1.7,2.12.67-1.41,1.68h.81l1.23-1.48L468,27l-.68.81h.81l4.28-5.11v-.93Zm-5.43,1.49-1.57-.5L470,17.18Zm4.88-9.51-.51,1-6.57,7.83-2.12-.67,1.43-1.7,1.62.51a.32.32,0,0,0,.37-.15l4.36-8.49Zm-20.1,0-.26-.31,2.8.88L452.83,16l-2.12-.67,1-1.21a.29.29,0,0,0,0-.39Zm12.12,5.74-2.12-.67,1.43-1.7,1.19.38a.32.32,0,0,0,.37-.15l2.5-4.9,1.28,1.5Zm4-3.83L465.6,20l-1.13-.36Zm-9.18-1.92-1-1.13,3.67,1.15.15.18-1.34,1.6L458,14.85l.62-.73a.32.32,0,0,0,0-.39h0Zm7,0-1.3-1.54,1-1.95,1.43,1.67L465.7,14a.29.29,0,0,0-.06-.27h0Zm0,.37-1.39,2.73-.7-.22,2.08-2.46Zm-.65-.17-2.07,2.46-2.12-.67,1.35-1.6.06-.11.78.25a.32.32,0,0,0,.37-.15l.67-1.32Zm-2.07-.33-1.21-.38-2.5-2.94,2.44.77a.32.32,0,0,0,.37-.15l.15-.29,1.43,1.68Zm-2.32-.73L457,11.71l-2.5-2.94,3.66,1.15ZM459.75,16l-1.43,1.72-2.12-.67,1.43-1.7Zm-1.23,2.42,2.12.67-1.42,1.72-2.12-.67Zm.43-.51,1.43-1.7,2.12.67-1.43,1.7Zm8.56-6.11,1-2L470,11.55l-1,2Zm.88-3.08L467,7.07l1-1.95,1.4,1.68Zm-.31.59-1,2-1.41-1.67,1-2Zm-2.87-.22-1.43-1.68,1-2,1.43,1.68Zm-.3.59-1,2L462.48,10l1-2ZM462,9.48l-1.4-1.65a.28.28,0,0,0,.09-.1l.94-1.85L463,7.51Zm-.31.6-.14.28-3.13-1L456,6.52l3.66,1.15ZM457.35,9l-3.64-1.1-2.42-2.85L455,6.2Zm-1.51,2.32-3.66-1.15L449.7,7.28l3.64,1.14Zm.76.88,1.4,1.71-.62.73L455.25,14a.32.32,0,0,0-.06-.25L453,11.08Zm.38,2.92-1.43,1.7-2.1-.64,1.43-1.71Zm-4,1.54,2.12.67L453.67,19l-2.12-.67Zm2.76.87,2.12.67-1.43,1.71-2.1-.65Zm.9,3.08,2.12.67L457.35,23l-2.1-.64Zm2.77.87,2.12.67-1.43,1.73-2.1-.64Zm.43-.51,1.43-1.7,2.12.67L462,21.7ZM471.25,9l-1,2-1.43-1.68,1-2Zm-2-6.43,1.44,1.7-1,2-1.43-1.7ZM467.41.34,468.85,2l-1,2-1.43-1.68ZM466.1,2.9l1.43,1.68-1,2L465.1,4.9ZM464.28.77l1.38,1.63-1,2-1.38-1.63ZM463,3.33,464.35,5l-1,2L462,5.32Zm-1.84-2.19,1.43,1.68-1,2-1.43-1.69ZM459.82,3.7l1.43,1.68-.92,1.85-.24-.08-2.5-2.94,1.47.46a.32.32,0,0,0,.37-.15ZM454.32.38l3.39,1.07a.31.31,0,0,0,.19,0l1.49,1.76L459,4l-2.16-.68Zm2.15,3.47L459,6.79l-3.65-1.15-2.5-2.94Zm-8.41-2.66,3.66,1.15,2.5,2.94-3.66-1.15Zm-1.51,2.33,3.64,1.17,2.42,2.85L449,6.39ZM445,5.74l3.64,1.18,2.5,2.94-3.66-1.15Zm3.24,3.85,3.66,1.15,2.5,2.94-3.66-1.15ZM448,14.46l.29-.34a.3.3,0,0,0,0-.4l-1.54-1.81,3.66,1.15.73.86-1,1.2Zm.9,3.08,1.42-1.7,2.12.68L451,18.22Zm-2.31,10.1,3.25-6.35,1.64.52Zm5.33-6.35-2.12-.67,1.43-1.7,2.12.67Zm.63.2,1.43-1.7,2.12.67-1.43,1.7Zm3,3.75-2.12-.67,1.43-1.7,2.12.67Zm2.77.87-2.12-.66,1.43-1.7,2.12.67ZM461,27l-2.16-.67,1.43-1.7,2.12.67Zm1.85-2.21-2.12-.67,1.43-1.7,2.12.67Zm2.74.86L463.51,25l1.43-1.7,2.07.64h.07Zm.65.21,6-7.12-4,7.75Z" transform="translate(0 0.02)" style="fill: #ebebed"/>
    <path d="M361.23,9.07v.64l2.43.77a.32.32,0,0,0,.37-.15L369.31,0h-.69l-5,9.8Z" transform="translate(0 0.02)" style="fill: #ebebed"/>
    <polygon points="274.04 0.06 274.05 0.04 273.36 0.04 273.35 0.06 274.04 0.06" style="fill: #ebebed"/>
    <path d="M305.42,27.27a.32.32,0,0,0,.37-.15l8.87-17.31,18.55,5.85a.32.32,0,0,0,.37-.15L341.51,0h-.69l-7.67,15L314.6,9.14a.32.32,0,0,0-.37.15L305.66,26v-.5l-.79.95-2.12-.67,1.44-1.72a.3.3,0,0,0,.28-.17l.22-.42,1-1.17v-.75l7.66-15L331.9,12.4a.32.32,0,0,0,.37-.15L338.53,0h-.69l-6,11.75L313.3,5.92h-.06a.3.3,0,0,0-.34.16l-8.73,17-.2.24-2.13-.66,3.82-4.55v-1l-1.91,2.28L312,3.35,330.55,9.2a.32.32,0,0,0,.37-.15l4.63-9h-.69l-4.38,8.53L311.92,2.7a.32.32,0,0,0-.37.15l-8.86,17.31-1.75-.55,4.62-5.49a.3.3,0,0,0,0-.4l-1.15-1.36,1-2,.25.31V9.92l5-9.78L329.2,6a.32.32,0,0,0,.37-.15l3-5.83h-.69l-2.73,5.32L312.3,0H310l-4.72,9.3L303.9,7.67l1-2,.76.89V5.65l-.47-.53L307.8,0h-.69l-2.35,4.59-1.43-1.68,1-2,1.31,1.54V1.56l-1-1.18.18-.36h-1.25l.35.41-1,2L301.49.74l.37-.72h-.69l-.11.22L300.9.05h-.81l.65.76-1,2-1.44-1.7L298.86,0h-.69l-.31.59L297.38,0h-.8l1,1.15-1,2-1.44-1.69h0L295.87,0h-.69l-.47.92h-.07L293.9.05h-.81l.44.51L291.81,0h-2.19L292,2.89l-3.66-1.17L286.93,0h-.83l1.14,1.34L283.48.18,283.35,0h-2.51l2.26.71,2.5,2.94L282,2.5,279.85,0H279l1.81,2.11-2-.63h-.06a.3.3,0,0,0-.34.16l-.26.5-.35-.42v1l.05.06-.05.1V4.2l.48-.92L279.74,5l-1,2-.91-1.07v1l.6.71-.6,1.17V10.9L279,12.25l-1.15,2.25v1.35l1.59-3.08,1,1.16L277.86,17v.94l2.95-3.51-2.95,5.75v1.91L283,16l-4.2,8.19-.94,1.12v2.07l1.46-2.85,7.34-8.75,2.12.67-1.43,1.7-1.88-.59a.32.32,0,0,0-.37.15l-4.11,8-1.78,2.12h1.39l.92-1.78,6.05-7.2,2.12.67-1.43,1.7-1.45-.46a.32.32,0,0,0-.37.15l-3.24,6.33-.5.59h.89l.13-.25,4.75-5.66,2.19.69-1.43,1.7L288.16,24a.32.32,0,0,0-.37.15l-1.9,3.7h1.2L289.45,25l2.12.68-1.43,1.7-.65-.2a.32.32,0,0,0-.37.15l-.25.49h2.64l-.76-.23,1.43-1.7,2.12.67-1.05,1.26h.81l.89-1.07,2.12.67-.34.4h.79l.17-.2.62.2H301l1.29-1.54,2.15.67-.74.87h.8l.57-.67Zm-22.64-3.7,2.77-5.39,1.4.44Zm2.2,1.54,1.9-3.7,1,.31Zm2.07,1.81,1.17-2.29.58.19Zm15.58-6.13-1.42,1.7-2.12-.67,1.43-1.7ZM295,13.71l-1-1.18,3.77,1.22.16.19-1.29,1.54-2.19-.69.55-.65a.32.32,0,0,0,0-.41h0Zm2-.87-3.77-1.19-2.5-2.94,3.77,1.2Zm-1.39-2.6,3.15,1a.32.32,0,0,0,.31-.07l1.44,1.69-.47.92-1.92-.62ZM296.2,16l-1.43,1.7L292.61,17,294,15.3ZM295,18.38l2.12.67-1.43,1.7-2.12-.67Zm2.76.87,2.12.67-1.43,1.7L296.32,21Zm-.21-.71-2.12-.67,1.43-1.7,2.13.65Zm-.26-2.88,1.29-1.54a.23.23,0,0,0,.06-.12l1.48.47a.32.32,0,0,0,.37-.15l.48-.92.46.54-2,2.41Zm4.78-1.54a.3.3,0,0,0,0-.4l-.79-.92,1-2,1.38,1.63L301.36,17l-1.31-.44Zm.08-4.39-1.43-1.68,1-2,1.43,1.68Zm-.31.59-1,2-1.43-1.68,1-2ZM299,10.09l-1.85-2.16.31.1a.3.3,0,0,0,.4-.14l.73-1.43L300,8.13Zm-.43.44-3.66-1.15-2.5-2.94L296,7.59ZM293.77,9,290,7.84,287.5,4.9l3.77,1.19Zm-1.63,2.28-3.66-1.15L286,7.22l3.66,1.15Zm-4.76-1.5-3.65-1.15-2.5-2.94,3.67,1.15ZM285.82,12l-3-.95a.32.32,0,0,0-.36.14L281.09,9.6l.51-1,1.81.57ZM284.5,9.5l3.64,1.15,2.42,2.85-3.65-1.15Zm4.76,1.5,3.64,1.16,1.47,1.73-.54.65-2.24-.71a.35.35,0,0,0-.06-.14Zm4.16,4L292,16.78l-2.12-.67,1.43-1.7Zm-1.23,2.41,2.19.69L293,19.88l-2.2-.69Zm1,3.11,2.12.67L293.82,23l-2.12-.67Zm2.76.87,2.12.67-1.43,1.7-2.12-.67Zm2.77.87,2.12.66-1.43,1.7L297.25,24ZM305,13.84l-4.62,5.49-2.12-.67L299.6,17l1.8.57a.32.32,0,0,0,.37-.15l2.3-4.5Zm.06-4-1,2-1.38-1.63,1-2Zm-2-6.32,1.43,1.68-1,2L302,5.48Zm-1.85-2.19L302.62,3l-1,2-1.43-1.68Zm-1.32,2.56,1.43,1.68-1,2-1.43-1.68ZM298,1.7l1.43,1.68-1,2L297,3.66Zm-1.52,3,.21-.4L298.12,6l-.73,1.43-1-.31-2.5-2.94,2.21.69a.31.31,0,0,0,.37-.15ZM290.65.29l3.65,1.14,2,2.31-.2.4-2.91-.92Zm2.16,3.47,2.5,2.94-3.66-1.15-2.5-2.94Zm-8.54-2.69L288,2.26l2.5,2.94L286.77,4Zm2.16,3.48,2.47,2.94-3.66-1.15-2.5-2.94Zm-7.76-1.87.25-.49,2.74.86,2.5,3L280.5,4.84Zm1.56,2.77,2.42,2.85L281.5,8a.32.32,0,0,0-.37.15l-.51,1-1.43-1.68Zm-.89,6.2L277.91,10l1-2,1.43,1.68Zm.44.51,1-2,1.38,1.63-1,2a.21.21,0,0,0-.06-.1Zm-1.39,8.36,4.19-8.18,1.35,1.58Zm2.19,1.54L284.2,15l1.83.58Zm5.88-7-2.12-.67.22-.26a.3.3,0,0,0,0-.4l-1.66-2,3.65,1.15.85,1Zm.64.2.95-1.13a.3.3,0,0,0,0-.4l-.38-.45,3,.94-1.44,1.69Zm.9,3.08,1.43-1.7,2.12.67L290.13,19Zm.9,3.08,1.43-1.7,2.19.69-1.43,1.7Zm3.1,3.76-2.11-.66,1.43-1.7,2.12.67Zm2.77.88-2.12-.67,1.43-1.7,2.12.67Zm2.75.87-2.14-.68,1.43-1.7,2.12.67Zm2.74.86-2.11-.67,1.42-1.7,2.12.67Zm1.85-2.21L300,24.91l1.43-1.7,2.12.67Z" transform="translate(0 0.02)" style="fill: #ebebed"/>
    <path d="M360,.66l.31-.65h-.69l-.07.14-.4-.15h-2l2.56.79A.28.28,0,0,0,360,.66Z" transform="translate(0 0.02)" style="fill: #ebebed"/>
    <path d="M361.23,4V2.78l-.31.59L350.27,0h-2L361,4A.31.31,0,0,0,361.23,4Z" transform="translate(0 0.02)" style="fill: #ebebed"/>
    <polygon points="277.02 0.06 277.04 0.04 276.34 0.04 276.33 0.06 277.02 0.06" style="fill: #ebebed"/>
    <path d="M328.27,2.7,329.65,0H329l-1.11,2.18-7-2.18h-2.05l9,2.84a.3.3,0,0,0,.39-.13Z" transform="translate(0 0.02)" style="fill: #ebebed"/>
    <path d="M361.23,6.26v.65l1.1.34a.32.32,0,0,0,.37-.15L366.33,0h-.69l-3.37,6.57Z" transform="translate(0 0.02)" style="fill: #ebebed"/>
    <path d="M361.23,4a.4.4,0,0,0,.13-.13l2-3.87h-.69l-1.42,2.77Z" transform="translate(0 0.02)" style="fill: #ebebed"/>
    <path d="M361.23,14.67v.65l5.1,1.61a.32.32,0,0,0,.37-.15L375.28,0h-.69l-8.31,16.23Z" transform="translate(0 0.02)" style="fill: #ebebed"/>
    <path d="M361.23,11.86v.65L365,13.7a.32.32,0,0,0,.37-.15L372.29,0h-.69l-6.66,13Z" transform="translate(0 0.02)" style="fill: #ebebed"/>
    <path d="M378.23,5.32h-.06a.3.3,0,0,0-.34.16L369,22.77l-7.73-2.44V21L369,23.44a.32.32,0,0,0,.37-.15L378.26,6l18.55,5.85a.32.32,0,0,0,.37-.15l6-11.65h-.69l-5.71,11.14Z" transform="translate(0 0.02)" style="fill: #ebebed"/>
    <polygon points="401.84 0.06 401.82 0.04 401.01 0.04 401.03 0.06 401.84 0.06" style="fill: #ebebed"/>
    <polygon points="405.32 0.06 405.3 0.04 404.49 0.04 404.51 0.06 405.32 0.06" style="fill: #ebebed"/>
    <polygon points="398.36 0.06 398.33 0.04 397.52 0.04 397.55 0.06 398.36 0.06" style="fill: #ebebed"/>
    <path d="M394.47,5.14,397.1,0h-.69L394,4.63,379.39,0h-2.05L394.1,5.3A.3.3,0,0,0,394.47,5.14Z" transform="translate(0 0.02)" style="fill: #ebebed"/>
    <polygon points="391.3 0.06 391.28 0.04 390.47 0.04 390.49 0.06 391.3 0.06" style="fill: #ebebed"/>
    <path d="M393.14,1.92l1-1.88h-.66l-.71,1.41L388.27,0h-2.06l6.55,2.06A.3.3,0,0,0,393.14,1.92Z" transform="translate(0 0.02)" style="fill: #ebebed"/>
    <polygon points="412.29 0.06 412.27 0.04 411.46 0.04 411.49 0.06 412.29 0.06" style="fill: #ebebed"/>
    <polygon points="408.81 0.06 408.78 0.04 407.98 0.04 408 0.06 408.81 0.06" style="fill: #ebebed"/>
    <path d="M361.23,23.77l9.13,2.88a.32.32,0,0,0,.37-.15L379.6,9.19,398.15,15a.32.32,0,0,0,.37-.15L406.14,0h-.69L398.1,14.36,379.55,8.51a.32.32,0,0,0-.37.15L370.31,26l-9.07-2.86-9.48-3a.32.32,0,0,0-.37.15l-3.86,7.54h.69l3.6-7Z" transform="translate(0 0.02)" style="fill: #ebebed"/>
    <polygon points="415.21 0.06 416.8 0.56 416.8 0.06 416.8 0.04 414.94 0.04 414.97 0.06 415.21 0.06" style="fill: #ebebed"/>
    <path d="M376.86,2.08a.32.32,0,0,0-.37.15l-8.87,17.31-6.4-2v.64l6.47,2a.32.32,0,0,0,.37-.15l8.86-17.31,18.55,5.85a.32.32,0,0,0,.37-.15L400.15,0h-.7l-4.06,7.92Z" transform="translate(0 0.02)" style="fill: #ebebed"/>
    <polygon points="472.37 25.93 472.01 26.35 472.37 25.67 472.37 24.32 470.55 27.85 471.25 27.85 471.56 27.85 472.37 26.89 472.37 25.93" style="fill: #ebebed"/>
    <path d="M418.9,26l-1,1.88h.69l.7-1.37,4.35,1.37h2l-6.45-2A.3.3,0,0,0,418.9,26Z" transform="translate(0 0.02)" style="fill: #ebebed"/>
    <polygon points="416.8 24.27 414.96 27.85 415.65 27.85 416.8 25.62 416.8 24.27" style="fill: #ebebed"/>
    <polygon points="473.55 0.06 473.57 0.04 472.87 0.04 472.86 0.06 473.55 0.06" style="fill: #ebebed"/>
    <polygon points="475.71 0.06 475.62 0.04 473.57 0.04 473.66 0.06 475.71 0.06" style="fill: #ebebed"/>
    <path d="M417.57,22.73l-.78,1.51v1.35L418,23.24l14.55,4.59h2.05l-16.67-5.25A.31.31,0,0,0,417.57,22.73Z" transform="translate(0 0.02)" style="fill: #ebebed"/>
    <polygon points="484.59 0.06 484.5 0.04 482.45 0.04 482.54 0.06 484.59 0.06" style="fill: #ebebed"/>
    <path d="M416.8,20.06v-.65l-.19-.06a.32.32,0,0,0-.37.15L412,27.81h.69l4-7.81Z" transform="translate(0 0.02)" style="fill: #ebebed"/>
    <path d="M387.18,27.83h.55l-.24-.08A.32.32,0,0,0,387.18,27.83Z" transform="translate(0 0.02)" style="fill: #ebebed"/>
    <path d="M416.8,17.26v-.65l-1.52-.48a.32.32,0,0,0-.37.15L409,27.83h.69l5.64-11Z" transform="translate(0 0.02)" style="fill: #ebebed"/>
    <path d="M385.82,24.77l-1.57,3.06h.69l1.31-2.55,8.08,2.55h2l-10.18-3.22A.32.32,0,0,0,385.82,24.77Z" transform="translate(0 0.02)" style="fill: #ebebed"/>
    <path d="M416.8,14.54v-.65L414,13a.31.31,0,0,0-.37.15l-7.51,14.68h.69L414,13.66Z" transform="translate(0 0.02)" style="fill: #ebebed"/>
    <path d="M431.19,15.63,416.8,11.09v.65l14.45,4.56a.32.32,0,0,0,.37-.15L439.87.05h-.69Z" transform="translate(0 0.02)" style="fill: #ebebed"/>
    <path d="M412.69,10.45l4.09,1.29V11.1l-4.15-1.31a.32.32,0,0,0-.37.15l-8.85,17.31L384.86,21.4a.32.32,0,0,0-.37.15l-3.21,6.28H382L385,22.06l18.29,5.77h.57l.06-.07Z" transform="translate(0 0.02)" style="fill: #ebebed"/>
    <path d="M430.29,12.92,436.89,0h-.69l-6.33,12.37L416.8,8.3V9l13.12,4.14A.35.35,0,0,0,430.29,12.92Z" transform="translate(0 0.02)" style="fill: #ebebed"/>
    <polygon points="495.39 0.06 495.4 0.04 494.71 0.04 494.69 0.06 495.39 0.06" style="fill: #ebebed"/>
    <polygon points="498.37 0.06 498.38 0.04 497.69 0.04 497.68 0.06 498.37 0.06" style="fill: #ebebed"/>
    <polygon points="492.4 0.06 492.42 0.04 491.73 0.04 491.71 0.06 492.4 0.06" style="fill: #ebebed"/>
    <path d="M402.14,24.69a.32.32,0,0,0,.37-.15l8.87-17.31,5.42,1.71V8.29l-5.49-1.73a.32.32,0,0,0-.37.15L402.07,24l-18.55-5.85a.32.32,0,0,0-.37.15l-4.87,9.5H379l4.6-9Z" transform="translate(0 0.02)" style="fill: #ebebed"/>
    <path d="M400.8,21.47a.32.32,0,0,0,.37-.15L410,4l6.76,2.13V5.49L410,3.33a.32.32,0,0,0-.37.15l-8.87,17.31-18.55-5.85a.32.32,0,0,0-.37.15l-6.51,12.72H376l6.25-12.21Z" transform="translate(0 0.02)" style="fill: #ebebed"/>
    <path d="M429,9.7,433.9,0h-.69l-4.68,9.15L416.8,5.5v.65l11.79,3.71a.3.3,0,0,0,.4-.14Z" transform="translate(0 0.02)" style="fill: #ebebed"/>
    <path d="M354,26.73l-.56,1.1h.7l.31-.59,1.85.59h2.05l-4-1.26A.32.32,0,0,0,354,26.73Z" transform="translate(0 0.02)" style="fill: #ebebed"/>
    <path d="M427.62,6.49l3.3-6.44h-.69l-3,5.93L416.8,2.7v.65l10.45,3.3A.34.34,0,0,0,427.62,6.49Z" transform="translate(0 0.02)" style="fill: #ebebed"/>
    <path d="M353.11,23.36h-.18a.33.33,0,0,0-.22.16l-2.22,4.32h.69l2-3.81,8.09,2.55,4,1.26h2l-6-1.91Z" transform="translate(0 0.02)" style="fill: #ebebed"/>
    <path d="M399.47,18.25a.32.32,0,0,0,.37-.15L408.69.79l8.09,2.55V2.69L408.63.12a.32.32,0,0,0-.37.15l-8.87,17.31-18.55-5.85a.32.32,0,0,0-.37.15l-8.15,15.94H373l7.9-15.43Z" transform="translate(0 0.02)" style="fill: #ebebed"/>
    <path d="M426.28,3.27,427.93.05h-.69l-1.39,2.71L417.25.05h-.45V.54l9.11,2.87A.31.31,0,0,0,426.28,3.27Z" transform="translate(0 0.02)" style="fill: #ebebed"/>
    <path d="M361.23,21v-.65l-10.82-3.41a.32.32,0,0,0-.37.15l-5.51,10.76h.69l5.24-10.25Z" transform="translate(0 0.02)" style="fill: #ebebed"/>
    <path d="M425,.05h-.87l.5.15A.32.32,0,0,0,425,.05Z" transform="translate(0 0.02)" style="fill: #ebebed"/>
    <path d="M321.27,25.3a.32.32,0,0,0-.35.16l-1.21,2.37h.69l1-1.85,5.87,1.85h2l-7.94-2.5Z" transform="translate(0 0.02)" style="fill: #ebebed"/>
    <path d="M361.23,18.17v-.64L349.08,13.7a.32.32,0,0,0-.37.15l-7.15,14h.69l6.89-13.47Z" transform="translate(0 0.02)" style="fill: #ebebed"/>
    <path d="M361.23,15.31v-.64L347.72,10.4a.32.32,0,0,0-.37.15l-8.87,17.28h.71l8.59-16.77Z" transform="translate(0 0.02)" style="fill: #ebebed"/>
    <path d="M319.56,22.17l-2.9,5.66h.69L320,22.67l16.32,5.16h2.05L319.93,22A.31.31,0,0,0,319.56,22.17Z" transform="translate(0 0.02)" style="fill: #ebebed"/>
    <path d="M337.21,25.31a.32.32,0,0,0,.37-.15l8.87-17.31,14.79,4.67v-.65L346.39,7.19a.32.32,0,0,0-.37.15l-8.87,17.31L318.6,18.8a.32.32,0,0,0-.37.15l-4.55,8.88h.69l4.29-8.37Z" transform="translate(0 0.02)" style="fill: #ebebed"/>
    <path d="M335.87,22.09a.32.32,0,0,0,.37-.15l8.87-17.31,16.12,5.08V9.07L345.05,4a.32.32,0,0,0-.37.15l-8.87,17.31-18.55-5.85a.32.32,0,0,0-.37.15l-6.2,12.1h.68l5.95-11.59Z" transform="translate(0 0.02)" style="fill: #ebebed"/>
    <path d="M334.54,18.87a.32.32,0,0,0,.37-.15l8.87-17.31,17.45,5.5V6.26L343.72.74a.32.32,0,0,0-.37.15L334.48,18.2l-18.55-5.85a.32.32,0,0,0-.37.15l-7.84,15.32h.69L316,13Z" transform="translate(0 0.02)" style="fill: #ebebed"/>
    <polygon points="222.29 26.14 221.41 27.85 222.11 27.85 222.29 27.5 222.29 26.14" style="fill: #ebebed"/>
    <path d="M222.29,22.28v-.65l-.34-.11a.32.32,0,0,0-.37.15l-3.15,6.16h.69L222,22.19Z" transform="translate(0 0.02)" style="fill: #ebebed"/>
    <path d="M222.29,19.48v-.64l-1.68-.53a.31.31,0,0,0-.37.15l-4.79,9.36h.69L220.67,19Z" transform="translate(0 0.02)" style="fill: #ebebed"/>
    <path d="M222.29,16.69V16l-3-.92h-.06a.3.3,0,0,0-.34.16l-6.45,12.57h.69l6.18-12.07Z" transform="translate(0 0.02)" style="fill: #ebebed"/>
    <polygon points="271.06 0.06 271.07 0.04 270.38 0.04 270.37 0.06 271.06 0.06" style="fill: #ebebed"/>
    <path d="M222.29,13.89v-.64L218,11.89h-.06a.3.3,0,0,0-.34.16l-8.08,15.8h.69L218,12.54Z" transform="translate(0 0.02)" style="fill: #ebebed"/>
    <polygon points="268.08 0.06 268.09 0.04 267.4 0.04 267.38 0.06 268.08 0.06" style="fill: #ebebed"/>
    <polygon points="253.92 0.06 253.83 0.04 251.78 0.04 251.87 0.06 253.92 0.06" style="fill: #ebebed"/>
    <polygon points="265.09 0.06 265.11 0.04 264.42 0.04 264.4 0.06 265.09 0.06" style="fill: #ebebed"/>
    <polygon points="262.11 0.06 262.13 0.04 260.65 0.04 260.74 0.06 262.11 0.06" style="fill: #ebebed"/>
    <path d="M158,25.6l-1.14,2.23h.69l.88-1.72,5.44,1.72h2l-7.56-2.38A.28.28,0,0,0,158,25.6Z" transform="translate(0 0.02)" style="fill: #ebebed"/>
    <path d="M93.15,26.37l-.74,1.45h.69l.48-.94,3,.92h2L93.5,26.2A.32.32,0,0,0,93.15,26.37Z" transform="translate(0 0.02)" style="fill: #ebebed"/>
    <path d="M91.81,23.16l-2.38,4.67h.69l2.13-4.16,13.18,4.16h2L92.19,23A.31.31,0,0,0,91.81,23.16Z" transform="translate(0 0.02)" style="fill: #ebebed"/>
    <polygon points="238.17 0.06 238.15 0.04 237.34 0.04 237.36 0.06 238.17 0.06" style="fill: #ebebed"/>
    <polygon points="240.28 0.06 240.29 0.04 239.6 0.04 239.59 0.06 240.28 0.06" style="fill: #ebebed"/>
    <polygon points="237.3 0.06 237.31 0.04 236.62 0.04 236.61 0.06 237.3 0.06" style="fill: #ebebed"/>
    <polygon points="234.32 0.06 234.69 0.06 234.67 0.04 233.64 0.04 233.63 0.06 234.32 0.06" style="fill: #ebebed"/>
    <polygon points="243.26 0.06 243.27 0.04 242.58 0.04 242.57 0.06 243.26 0.06" style="fill: #ebebed"/>
    <polygon points="248.63 0.06 248.6 0.04 247.8 0.04 247.82 0.06 248.63 0.06" style="fill: #ebebed"/>
    <polygon points="245.14 0.06 245.12 0.04 244.31 0.04 244.33 0.06 245.14 0.06" style="fill: #ebebed"/>
    <polygon points="241.66 0.06 241.63 0.04 240.83 0.04 240.85 0.06 241.66 0.06" style="fill: #ebebed"/>
    <path d="M111.15,0h-.55l-6.51,12.72L85.53,6.91a.32.32,0,0,0-.37.15L76.3,24.37,57.75,18.52a.32.32,0,0,0-.37.15l-1.79,3.49v1.35L57.8,19.2l18.55,5.85a.32.32,0,0,0,.37-.15L85.58,7.58l18.54,5.85a.32.32,0,0,0,.37-.15L111.26,0h-.11Z" transform="translate(0 0.02)" style="fill: #ebebed"/>
    <polygon points="224.8 0.06 224.71 0.04 222.66 0.04 222.75 0.06 224.8 0.06" style="fill: #ebebed"/>
    <polygon points="222.29 2.07 215.83 0.04 213.78 0.04 222.29 2.71 222.29 2.07" style="fill: #ebebed"/>
    <path d="M197.13.88l.44-.86h-.69l-.18.35L195.59,0h-2.05l3.23,1A.33.33,0,0,0,197.13.88Z" transform="translate(0 0.02)" style="fill: #ebebed"/>
    <path d="M194.05,22.56l13.4,4.23a.32.32,0,0,0,.37-.15l8.87-17.31,5.61,1.77v-.65l-5.68-1.79a.32.32,0,0,0-.37.15l-8.87,17.31-12.91-4.06h.05v-1l-.68.81-2.12-.67,1.41-1.72,13,4.09a.32.32,0,0,0,.37-.15L215.36,6.1l6.94,2.19V7.65l-7-2.22a.32.32,0,0,0-.37.15L206.06,22.9,193.58,19l.95-1.12v-.73l10.25,3.24a.32.32,0,0,0,.37-.15L214,2.89l8.3,2.61V4.85L214,2.22a.32.32,0,0,0-.37.15l-8.87,17.31-12-3.8,1.43-1.7,9.35,2.95a.32.32,0,0,0,.37-.15l8.69-17h-.69L203.4,16.47l-9.43-3-2.5-2.94,10.66,3.36a.32.32,0,0,0,.37-.15L209.5,0h-.69L202,13.23l-7.54-2.37V10L193,8.24l7.82,2.46a.32.32,0,0,0,.37-.15L206.58,0h-.69l-5.13,10-8.54-2.68-2.5-2.94,3.66,1.15,1.15,1.35V6h-.05l5,1.57a.32.32,0,0,0,.37-.15L203.57,0h-.69L199.4,6.8,193.72,5l-2.5-2.94,6.9,2.17a.32.32,0,0,0,.37-.15L200.57,0h-.69l-1.82,3.58-3.54-1.11V1.85L193,0h-.81l2,2.31L190.47,1.2l-1-1.15h-.81l.68.8L186.72,0h-2.05l.68.21,2.5,2.94L184.19,2l-1.68-2h-.81l1.38,1.63L180.82,1a.32.32,0,0,0-.37.15l-.2.38L179,.05h-.31V0H178l-1,1.85L175.64.19l.08-.17h-1l.19.22-1,2L172.49.68l.34-.66h-.69l-.08.15L172,.05h-.81l.62.71-1,2L169.33,1l.52-1h-.69l-.26.51L168.48,0h-.81l.92,1.08-1,2-.87-1V3l.57.67-1,1.94L148.5,0h-1.17l-8.75,17.07-.12.14-2.12-.67,2-2.44a.3.3,0,0,0,0-.4l-.23-.27L145,0h-.69L138.9,10.57v-.33l-1.32-1.56,1-2,.31.37v-1l3.16-6h-.68l-2.88,5.62L137.06,4l1-2,.87,1V2l-.57-.67L139.07,0h-.69l-.45.87L137.21,0h-.81l1.23,1.44-1,2L135.2,1.76,136.1,0h-.69l-.64,1.23-1-1.22h-1.32l-.58,1.13L131,.87l-.7-.82h-.81l.4.47L128.27,0H126l2.37,2.79-3.66-1.15L123.28,0h-.81l1.1,1.29L119.91.19l-.12-.14h-2.47l2.23.7,2.5,2.94-3.66-1.15L116.3.05h-.8l1.8,2.12L116,1.75a.32.32,0,0,0-.37.15l-.45.88L113.71,1.1l.55-1.1h-.69l-.29.56L112.82,0H112l1,1.13-1,2-.82-1V3.1l.52.62L105.39,16,86.84,10.14a.32.32,0,0,0-.37.15L77.62,27.6,59.07,21.75a.32.32,0,0,0-.37.15l-3,5.93h.69l2.77-5.42,17.19,5.42h1.87l8.73-17,18.55,5.85a.32.32,0,0,0,.37-.15l6.28-12.26L113.58,6l-1,2-1.37-1.62v1l1.07,1.26-1,2-.06-.08v.2l-4.43,8.62-18.6-6a.32.32,0,0,0-.37.15L80.48,27.8h.69L88.25,14l18.54,5.85a.32.32,0,0,0,.37-.15l4.19-8.17,1.43,1.68-4.71,9.2L89.52,16.54a.32.32,0,0,0-.37.15L83.45,27.8h.69l5.43-10.6,18.55,5.85a.32.32,0,0,0,.37-.15l2.94-5.74L114,14.08a.3.3,0,0,0,0-.4l-.5-.59,1-2,1.43,1.68-2.83,5.54-2,2.34v1l.7-.85-2.46,4.8-18.5-5.81a.32.32,0,0,0-.37.15l-4,7.9h.69l3.78-7.39,18.55,5.85a.32.32,0,0,0,.37-.15l3.8-7.42,3.86-4.62a.3.3,0,0,0,0-.4l-.81-.95,1-1.94,1.43,1.68-3.81,7.45-4.15,5v1L114,22.37l-2.77,5.44H112l3.88-7.56L121,14.09a.3.3,0,0,0,0-.4l-1.13-1.33L120,12l3,1,.78.92-1,1.17-1.54-.49a.32.32,0,0,0-.37.15l-3.43,6.7-5.36,6.37H113l3.28-3.92-2,3.91H115l3.08-6,5-6,2.12.67-1.38,1.65-1.18-.38a.32.32,0,0,0-.37.15l-2.73,5.32-3.87,4.62h.8l1.8-2.16-1.1,2.16h.69L120,23.53l4-4.73,2.12.67-1.43,1.7-.75-.24a.32.32,0,0,0-.37.15l-1.87,3.64-2.57,3.08h.8l.51-.62-.31.62h.69l1.4-2.73,2.68-3.19,2.12.67-1.43,1.7-.31-.1a.32.32,0,0,0-.37.15l-1,2-1.29,1.54h1.19l.62-1.19L125.8,25l2.12.67-1.46,1.73a.36.36,0,0,0-.22.16l-.14.27H128l-.83-.26,1.43-1.7,2.12.67-1.09,1.3h.81l.92-1.1,2.12.67-.38.4h.81l.19-.23.71.23h2.58l1.31-1.57,3.88,1.23a.32.32,0,0,0,.37-.15L151.76,10,168,15.09l-1.28,1.54v.21L153,12.53a.32.32,0,0,0-.37.15l-7.74,15.1h.69l7.48-14.59,13.61,4.29v.1l.06-.08,2.12.67-1.43,1.7-13.1-4.13a.32.32,0,0,0-.37.15l-6,11.89h.69l5.83-11.38,12.61,4-.33.39v1l1-1.15,2.12.67L168.35,23l-12.67-4a.32.32,0,0,0-.37.15l-4.44,8.68h.69l4.18-8.15,12.17,3.84L166.68,25v.31l-9.68-3a.32.32,0,0,0-.37.15l-2.78,5.44h.69L157.07,23l9.61,3h0l2.12.67-1,1.23h.81l.87-1,2.12.67-.31.37h.8l.14-.17.53.16h2.05l-2.16-.68,1.44-1.71.23.07a.32.32,0,0,0,.37-.15l.83-1.61,5.88-7L177,25.16l-2.19,2.61h.81l.13-.15-.08.15h.69l1.16-2.27,5.87-7-4.19,8.19-.92,1.08h1l.38-.73,5.88-7-3.95,7.73h1l5.19-6.2-3.17,6.2h1.46l5.15-6.14,2.13.68L191.94,24l-1.81-.57a.32.32,0,0,0-.37.15l-2.16,4.19h.69l1.88-3.68,1.32.42-2.72,3.25h.81l2.57-3.06,2.12.67-1.43,1.7-1.37-.43a.32.32,0,0,0-.37.15l-.5,1h.69l.23-.46.88.27-.15.18H195l-1.54-.49,1-1.2V25.5l7.35,2.33h2l-11.32-3.57Zm-74.76-3.22,2.08-4.06,1,.31Zm2,1.76,1.38-2.69.69.22Zm2.2,1.54.52-1,.26.08Zm70.87-5.58-1.43,1.7-2.12-.67,1.43-1.7Zm-7.19-3.34-2-2.35,3.66,1.14,1.19,1.4-.75.89-2.12-.67h0a.29.29,0,0,0,0-.39Zm-14,0-.9-1.06,1-2,1.43,1.68-3.08,6L170,17.91l3.18-3.79a.3.3,0,0,0,0-.4Zm-3.49,0-1-1.18.33.1a.32.32,0,0,0,.37-.15l.73-1.43,1.43,1.68-1.26,2.46-1.19-.38.59-.71a.27.27,0,0,0,0-.38Zm-2.85-2.41L150.38,6.13a.32.32,0,0,0-.37.15l-8.86,17.31-3-.92.74-.88v-1l-1.38,1.64-2.12-.67,1.38-1.64,3.08,1a.32.32,0,0,0,.37-.15l8.87-17.31,18.55,5.85a.32.32,0,0,0,.37-.15l.22-.42,1.38,1.62L168.93,12l-1-.31-1.19-1.4v.93Zm-44.4-4.1,3.66,1.15,2.5,2.94-3.66-1.15Zm1.39,2.6-3.65-1.15-2.5-2.94,3.66,1.15Zm10.72-2.23L132.69,7l-2.5-2.94,3.05,1a.3.3,0,0,0,.34-.12L135,6.59Zm.92-.47,1.43,1.68-1,2-2.44-2.86,1.14.36a.32.32,0,0,0,.37-.15Zm-.62,3.39-3.66-1.15-2.5-2.94,3.66,1.15Zm-3.52,7.93,2.12.67L132,20.74l-2.12-.67Zm-.21-.71L129,17.05l1.43-1.7,2.12.67Zm3,1.57,2.12.67-1.38,1.64-2.12-.67Zm-.21-.71-2.12-.67,1.43-1.7,2.12.67ZM133,15.5l-2.12-.67.59-.7a.3.3,0,0,0,0-.4l-1-1.19,3.66,1.15.2.23Zm-3.27-3.84-2.5-2.94,3.66,1.15,2.49,3Zm.4-2.68-3.65-1.15L124,4.89,127.59,6Zm-.76,3.21,1.48,1.73-.59.7L128,13.93a.31.31,0,0,0-.07-.21L125.68,11Zm.46,2.94-1.43,1.7-2.12-.67,1.43-1.7Zm-1.23,2.42,2.12.67-1.38,1.65-2.12-.67Zm.94,3,2.12.67-1.43,1.7-2.12-.67Zm2.76.87,2.12.67L133,23.81l-2.12-.67Zm2.77.87,2.11.67-1.43,1.7L133.59,24Zm33.57-14,1-2L171,8l-1,2Zm1.81,2.13,1-2,1.43,1.68-1,2Zm8.78-1-1,2L176.8,9.74l1-2ZM178.1,7.14l1-2,1.4,1.68-1,2Zm-1.74,2.05-1.43-1.68,1-2,1.43,1.69Zm-.31.6-1,2-1.43-1.68,1-2Zm-2.86-.23-1.43-1.68,1-2,1.43,1.68Zm2,3.29.88,1-3.61,4.31Zm1.51,1.23a.3.3,0,0,0,0-.4l-1.21-1.43,1-2L177.88,12,173,21.63,170.89,21Zm1.66-1.6,1.19,1.4-4.9,5.85Zm.31-.59,1-2,1.43,1.68-1,2ZM180,9.33l1-2L182.39,9l-1,2Zm4.93-1.54-1.33-.42a.31.31,0,0,0-.37.15l-.45.88-1.43-1.68,1-1.91h.1ZM183.5,5.2l3.65,1.15,2.5,2.94L186,8.14Zm-.61,4.31,1.43,1.68-1,2-1.43-1.68Zm.31-.6.45-.88,2,.64,2.5,2.94-3.25-1a.3.3,0,0,0-.26,0Zm6.37,6.59,2.12.67-1.43,1.7-2.12-.67Zm2.55.16L190,15l.75-.89a.3.3,0,0,0,0-.4l-.72-.85L193.5,14Zm.77-2.57L189.18,12l-2.5-3,3.66,1.16Zm1.52-2.31L190.7,9.67l-2.5-2.94,3.66,1.15ZM186.46.58l3.65,1.16,2.5,2.94L189,3.53Zm2.15,3.47,2.5,3-3.66-1.15L185,2.9Zm-7.7-2.43,2.94.92,2.49,3-3.66-1.15-2-2.34Zm-.5,1,1.44,1.69h0l-1,1.91-1.43-1.68ZM178.56.41,180,2.09l-1,2-1.43-1.68ZM177.25,3l1.4,1.68-1,2L176.18,5ZM175.41.78l1.4,1.68-1,2-1.43-1.68ZM174,3.4l1.43,1.68-1,2L173,5.36Zm-1.81-2.14,1.38,1.63-1,2-1.38-1.63Zm-1.31,2.56,1.37,1.61-1,2L169.9,5.77ZM169,1.63l1.43,1.68-1,2L168,3.63Zm-30.3,16.28a.31.31,0,0,0,.24-.16L147.84.44l18.55,5.85a.32.32,0,0,0,.37-.15l1-1.94,1.43,1.68-1,2-1.42-1.67v1l1.12,1.31-.21.42L149.09,3a.32.32,0,0,0-.37.15l-8.87,17.31-2.59-.82Zm-.66-.17-1.43,1.7-2.12-.67,1.43-1.7Zm-2.32-1.38-2.12-.67L135,14.12a.24.24,0,0,0,0-.12l2.16.68ZM137.21,14l-2.74-.87L132,10.21l3.65,1.15,1.85,2.16Zm1.53-3-1,2-1.43-1.68,1-2Zm-2-6.42,1.43,1.68-1,2-1.43-1.68Zm-1.85-2.19L136.35,4l-1,2-1.43-1.68Zm-3-.55a.32.32,0,0,0,.37-.15L133,.21l1.43,1.68-1,2-1.76-2.07ZM127,.24l3.65,1.15,2.5,2.94-3.66-1.15Zm2.15,3.48,2.47,2.94L128,5.51l-2.5-2.94ZM120.7,1.07l3.65,1.15,2.5,2.94L123.2,4Zm2.16,3.47,2.5,2.94L121.7,6.33l-2.5-2.94Zm-6.78-2.16,2,.64,2.53,3-3.26-1a.39.39,0,0,0-.26,0l-1.52-1.7Zm-.75,1.47,1.43,1.68-1,2-1.43-1.68Zm-2.87-.23,1-2,1.43,1.68-1,2Zm.29,11.09.51-1,.17.19Zm.39-2.11-1.43-1.68,1-2,1.38,1.71Zm1.3-2.55L113,8.37l1-1.94,1.43,1.68Zm2.47,3.85-2,2.34,1.49-2.91Zm-.62-1.67-1.43-1.68,1-1.94,1.43,1.68Zm1.31-2.55L116.17,8l1-1.95,1.91,2.25-.42-.13a.32.32,0,0,0-.37.15Zm2.78,4.22-3.26,3.89L119.58,13ZM120,11.37a.32.32,0,0,0-.37.15l-.18.34L118,10.18l.7-1.37,1.11.35,2.46,3Zm3.44,1.08-2.5-2.94,3.65,1.15,2.5,2.94Zm.07,2.82,1-1.18a.3.3,0,0,0,0-.4l-.31-.36,2.87.9-1.43,1.7Zm.94,3,1.38-1.65,2.12.67L126.54,19Zm.9,3.08,1.43-1.7,2.12.67L127.47,22Zm3,3.76-2.12-.67,1.43-1.7,2.12.67Zm2.76.87L129,25.34l1.43-1.7,2.12.67Zm2.77.87-2.12-.67,1.41-1.68,2.12.67Zm2.73.88-2.12-.67,1.43-1.7L138,26Zm15.16-18.4h-.06a.3.3,0,0,0-.34.16L142.5,26.8,139,25.69V25l-.48.57-2.12-.67,1.43-1.7,3.44,1.08a.32.32,0,0,0,.37-.15l8.87-17.31,17.12,5.41L169.1,14l-.59.7ZM167.22,17l1.43-1.7,1.68.53a.32.32,0,0,0,.37-.15l1.3-2.42.57.67-3.18,3.78Zm.9,3.08,1.43-1.7,2.11.67h0l-1.43,1.71Zm2.33,1.38,2.12.67-1.43,1.7L169,23.2ZM169.28,26l-2.12-.67,1.43-1.7,2.12.67ZM172,27l-2.12-.67,1.43-1.7,2.12.67Zm3-3.54-1.11,1.33-2.12-.67,7.42-8.85Zm1.77-2.12,4.68-9.15,1.43,1.68-.24.47Zm2.06,1.81,4.33-8.46.44-.52a.32.32,0,0,0,0-.37l1-2,1.88,2.2h0l-.36-.11a.32.32,0,0,0-.37.15l-1.09,2.12ZM181,24.64l4.19-8.19,1.5-1.79,2.12.67-1.44,1.72a.32.32,0,0,0-.28.16l-.22.44Zm2.2,1.54,4.2-8.2.2-.24,2.11.67Zm2.19,1.54,3.5-6.72,1.75.55ZM191.08,21,189,20.32l1.43-1.7,2.12.67Z" transform="translate(0 0.02)" style="fill: #ebebed"/>
    <path d="M165.41,2.92,166.9,0h-.69L165,2.41,157.39,0h-2L165,3.08A.33.33,0,0,0,165.41,2.92Z" transform="translate(0 0.02)" style="fill: #ebebed"/>
    <polygon points="230.64 0.06 231.33 0.06 231.35 0.04 230.37 0.04 230.4 0.06 230.64 0.06" style="fill: #ebebed"/>
    <polygon points="227.72 0.06 227.7 0.04 226.89 0.04 226.91 0.06 227.72 0.06" style="fill: #ebebed"/>
    <path d="M60,25.12l-1.39,2.71h.69l1.12-2.2,7,2.2h2L60.4,25A.31.31,0,0,0,60,25.12Z" transform="translate(0 0.02)" style="fill: #ebebed"/>
    <path d="M75,21.82a.32.32,0,0,0,.37-.15L84.25,4.36l18.55,5.85a.32.32,0,0,0,.37-.15l5.13-10h-.69l-4.86,9.5L84.18,3.69a.32.32,0,0,0-.37.15L74.94,21.15,56.4,15.31a.32.32,0,0,0-.37.15l-.45.89V17.7l.88-1.7Z" transform="translate(0 0.02)" style="fill: #ebebed"/>
    <path d="M27.8,24.44v-.65l-.55-.17a.32.32,0,0,0-.37.15L24.8,27.83h.69l1.81-3.54Z" transform="translate(0 0.02)" style="fill: #ebebed"/>
    <path d="M74,18.36,82.87,1.05,101.42,6.9a.32.32,0,0,0,.37-.15L105.23,0h-.69l-3.19,6.2L82.81.39a.32.32,0,0,0-.37.15L73.57,17.85l-18-5.68v.64l18.07,5.7A.28.28,0,0,0,74,18.36Z" transform="translate(0 0.02)" style="fill: #ebebed"/>
    <path d="M55.58,9.38V10l16.73,5.28a.32.32,0,0,0,.37-.15L80.43,0h-.69L72.25,14.65Z" transform="translate(0 0.02)" style="fill: #ebebed"/>
    <path d="M27.8,21.64V21l-1.88-.59a.32.32,0,0,0-.37.15l-3.73,7.27h.69L26,21.06Z" transform="translate(0 0.02)" style="fill: #ebebed"/>
    <path d="M100.46,3.54,102.25.05h-.69L100,3,90.55,0h-2l11.54,3.7A.32.32,0,0,0,100.46,3.54Z" transform="translate(0 0.02)" style="fill: #ebebed"/>
    <path d="M55.58,6.58v.65L71,12.09a.32.32,0,0,0,.37-.15L77.45,0h-.69L70.91,11.42Z" transform="translate(0 0.02)" style="fill: #ebebed"/>
    <path d="M27.8,18.84V18.2l-3.21-1a.32.32,0,0,0-.37.15L18.85,27.83h.69l5.11-10Z" transform="translate(0 0.02)" style="fill: #ebebed"/>
    <path d="M99.13.31,99.27,0H97.42l1.35.42A.3.3,0,0,0,99.13.31Z" transform="translate(0 0.02)" style="fill: #ebebed"/>
    <path d="M55.58,3.78v.65L69.64,8.87A.31.31,0,0,0,70,8.72L74.48,0h-.69L69.58,8.2Z" transform="translate(0 0.02)" style="fill: #ebebed"/>
    <path d="M27.8,16v-.6L23.25,14a.32.32,0,0,0-.37.15l-7,13.71h.69l6.76-13.2Z" transform="translate(0 0.02)" style="fill: #ebebed"/>
    <polygon points="0.02 27.68 0.55 27.85 2.6 27.85 0.02 27.04 0.02 27.68" style="fill: #ebebed"/>
    <polygon points="52.59 0.06 52.5 0.04 50.45 0.04 50.54 0.06 52.59 0.06" style="fill: #ebebed"/>
    <polygon points="49.64 0.06 49.65 0.04 48.96 0.04 48.95 0.06 49.64 0.06" style="fill: #ebebed"/>
    <path d="M55.58,1v.64l12.74,4a.32.32,0,0,0,.37-.15L71.49,0H70.8L68.26,5Z" transform="translate(0 0.02)" style="fill: #ebebed"/>
    <path d="M27.8,13.25V12.6l-5.88-1.85a.32.32,0,0,0-.37.15L12.88,27.84h.69L22,11.42Z" transform="translate(0 0.02)" style="fill: #ebebed"/>
    <polygon points="0.02 24.88 9.43 27.85 11.48 27.85 0.02 24.23 0.02 24.88" style="fill: #ebebed"/>
    <polygon points="46.65 0.06 46.67 0.04 45.98 0.04 45.97 0.06 46.65 0.06" style="fill: #ebebed"/>
    <path d="M67.35,2.27,68.51,0h-.69l-.9,1.75L61.38,0H59.33L67,2.42A.29.29,0,0,0,67.35,2.27Z" transform="translate(0 0.02)" style="fill: #ebebed"/>
    <path d="M11.78,25.5,20.65,8.2l7.15,2.25V9.81L20.59,7.54a.32.32,0,0,0-.37.15L11.35,25,0,21.42v.63l11.39,3.59a.3.3,0,0,0,.39-.13Z" transform="translate(0 0.02)" style="fill: #ebebed"/>
    <path d="M10.45,22.28,19.32,5,27.8,7.65V7L19.25,4.31a.32.32,0,0,0-.37.15L10,21.77,0,18.62v.65l10.07,3.17A.31.31,0,0,0,10.45,22.28Z" transform="translate(0 0.02)" style="fill: #ebebed"/>
    <polygon points="43.68 0.06 43.69 0.04 43 0.04 42.98 0.06 43.68 0.06" style="fill: #ebebed"/>
    <polygon points="40.69 0.06 40.71 0.04 40.02 0.04 40 0.06 40.69 0.06" style="fill: #ebebed"/>
    <path d="M9.12,19.07,18,1.76l9.82,3.09V4.2L18,1.1h-.06a.3.3,0,0,0-.34.16L8.67,18.55,0,15.81v.65l8.73,2.75A.31.31,0,0,0,9.12,19.07Z" transform="translate(0 0.02)" style="fill: #ebebed"/>
    <polygon points="37.79 0.06 37.8 0.04 37.11 0.04 37.09 0.06 37.79 0.06" style="fill: #ebebed"/>
    <polygon points="34.8 0.06 34.82 0.04 34.13 0.04 34.11 0.06 34.8 0.06" style="fill: #ebebed"/>
    <polygon points="32.13 0.06 32.04 0.04 29.99 0.04 30.08 0.06 32.13 0.06" style="fill: #ebebed"/>
    <path d="M3.82,6.27,7,0H6.3L3.38,5.76,0,4.7v.65L3.45,6.43A.32.32,0,0,0,3.82,6.27Z" transform="translate(0 0.02)" style="fill: #ebebed"/>
    <path d="M7.82,15.93,16,0h-.69L7.39,15.42,0,13.09v.66l7.43,2.34A.33.33,0,0,0,7.82,15.93Z" transform="translate(0 0.02)" style="fill: #ebebed"/>
    <polygon points="27.8 1.5 23.16 0.04 21.11 0.04 27.8 2.14 27.8 1.5" style="fill: #ebebed"/>
    <path d="M2.48,3.05,4,0H3.33L2,2.54,0,1.89v.65l2.1.66A.3.3,0,0,0,2.48,3.05Z" transform="translate(0 0.02)" style="fill: #ebebed"/>
    <path d="M6.48,12.71,13,0h-.69L6.05,12.2,0,10.3v.64l6.1,1.92A.31.31,0,0,0,6.48,12.71Z" transform="translate(0 0.02)" style="fill: #ebebed"/>
    <path d="M5.15,9.49,10,0H9.31L4.72,9,0,7.49v.65l4.77,1.5A.3.3,0,0,0,5.15,9.49Z" transform="translate(0 0.02)" style="fill: #ebebed"/>
  </g>
  <g id="b2bac629-15ee-4b7e-9da8-cb0036368e64" data-name="b9550508-8a54-4f94-869a-75257bb1cfae">
    <path d="M555.37,48.75l-2.55,3,2.55-5V44.62l-4.74,5.65,4.19-8.19.55-.65V39.67l-.24.47-1.43-1.68,1-2,.67.79v-1l-.37-.43.37-.72V33.84l-.8,1.56-1.43-1.68,1-2,1.23,1.44v-1l-.92-1.08.92-1.79V28.08l-.89-1h-.81l1.4,1.64-1,2L552.6,29l1-1.92h-.69l-.72,1.41L551,27.07h-1.07L549,28.85l-1.37-1.63.08-.16h-1l.21.24-1,2-1.43-1.68.27-.53h-1.57l.52.62-1,2L541.29,28l.46-.89h-.69l-.2.38-.33-.38h-.81l.53.62-2-.62h-2l2.5,2.94-3.66-1.15-1.52-1.79h-.81L534,28.5l-3.66-1.15-.25-.29h-2.73l2.62.83,2.5,2.94-3.67-1.15-1.19-1.41v.95l.09.11-2.93-.92a.32.32,0,0,0-.37.15l-8.87,17.31-15.72-5v.64l15.78,5a.32.32,0,0,0,.37-.15L524.84,29l3.61,1.14L530.87,33l-4.8-1.51a.32.32,0,0,0-.37.15L516.82,49l-17-5.37v.65l17.09,5.39a.32.32,0,0,0,.37-.15l8.87-17.32,1.48.47v.65l1.75,2.06-2-.62a.32.32,0,0,0-.37.15l-8.87,17.31-18.35-5.79v.64l18.42,5.81a.32.32,0,0,0,.37-.15l8.87-17.31,2.64.83,2.5,2.94L529,38l-1.34-1.6v1l.71.83-8.51,16.6h.69L527.62,41v.34l.15-.18a.3.3,0,0,0,0-.4h0l1-2L530.62,41l-.28.34-.25-.08a.32.32,0,0,0-.37.15l-.87,1.7-1.23,1.46v.92l-4.8,9.41h.69l5.87-11.46,1.18-1.4,2.13.66-1.54,1.8a.28.28,0,0,0-.09.1h0l-3.42,4.08v1L529.79,47l-4,7.8h.69l5-9.77,2.08.66-5.94,7.08v1l4.36-5.2-3.21,6.27h1.44l4.9-5.84,2.12.67-1.43,1.7-1.7-.54a.32.32,0,0,0-.37.15l-2,3.84h.69l1.7-3.33,1.21.38-2.46,3h.81l2.3-2.75,2.11.67-1.43,1.7-1.26-.4a.32.32,0,0,0-.37.15l-.31.62h.69v-.11l.33.11h2l-.55-.17L538.62,53l2.12.67-1,1.21h.81l.84-1,2.12.67-.29.34H544l.11-.14.43.14h2l-2-.65,1.43-1.7,2.12.67-1.41,1.68h.81l1.23-1.48L551,54l-.68.81h.81l4.28-5.11v-1Zm-5.43,1.49-1.57-.5L553,44.18Zm4.88-9.51-.51,1-6.57,7.83-2.12-.67,1.43-1.7,1.62.51a.32.32,0,0,0,.37-.15l4.36-8.49Zm-20.1,0-.26-.31,2.8.88L535.83,43l-2.12-.67,1-1.21a.29.29,0,0,0,0-.39Zm12.12,5.74-2.12-.67,1.43-1.7,1.19.38a.32.32,0,0,0,.37-.15l2.5-4.9,1.28,1.5Zm4-3.83L548.6,47l-1.13-.36Zm-9.18-1.92-1-1.13,3.67,1.15.15.18-1.34,1.6L541,41.85l.62-.73a.32.32,0,0,0,0-.39h0Zm7,0-1.3-1.54,1-2,1.43,1.67L548.7,41a.29.29,0,0,0-.06-.27h0Zm0,.37-1.39,2.73-.7-.22,2.08-2.46Zm-.65-.17-2.07,2.46-2.12-.67,1.35-1.6.06-.11.78.25a.32.32,0,0,0,.37-.15l.67-1.32Zm-2.07-.33-1.21-.38-2.5-2.94,2.44.77a.32.32,0,0,0,.37-.15l.15-.29,1.43,1.68Zm-2.32-.73L540,38.71l-2.5-2.94,3.66,1.15ZM542.75,43l-1.43,1.72-2.12-.67,1.43-1.7Zm-1.23,2.42,2.12.67-1.42,1.72-2.12-.67Zm.43-.51,1.43-1.7,2.12.67-1.43,1.7Zm8.56-6.11,1-2L553,38.55l-1,2Zm.88-3.08L550,34.07l1-2,1.43,1.68Zm-.31.59-1,2-1.41-1.67,1-2Zm-2.87-.22-1.43-1.68,1-2,1.43,1.68Zm-.3.59-1,2L545.48,37l1-2Zm-2.91-.2-1.4-1.65a.28.28,0,0,0,.09-.1l.94-1.85L546,34.51Zm-.31.6-.14.28-3.13-1L539,33.52l3.66,1.15Zm-4.38-1L536.67,35l-2.42-2.85L538,33.2ZM538.8,38.4l-3.66-1.15-2.48-2.92,3.64,1.14Zm.76.88L541,40.91l-.62.73L538.25,41a.32.32,0,0,0-.06-.25L536,38.08Zm.38,2.92-1.43,1.7-2.1-.64,1.43-1.71Zm-4,1.54,2.12.67-1.43,1.7-2.12-.67Zm2.76.87,2.12.67L539.39,47l-2.1-.65Zm.9,3.08,2.12.67L540.35,50l-2.1-.64Zm2.77.87,2.12.67L543.06,51,541,50.24Zm.43-.51,1.43-1.7,2.12.67L545,48.7Zm11.39-12-1,2-1.43-1.68,1-2Zm-2-6.43,1.44,1.7-1,2-1.43-1.7Zm-1.86-2.19,1.44,1.7-1,2-1.43-1.68ZM549.1,29.9l1.43,1.68-1,2L548.1,31.9Zm-1.82-2.13,1.38,1.63-1,2-1.38-1.63ZM546,30.33,547.35,32l-1,2L545,32.32Zm-1.84-2.19,1.43,1.68-1,2-1.43-1.69Zm-1.31,2.56,1.43,1.68-.92,1.85-.24-.08-2.5-2.94,1.47.46a.32.32,0,0,0,.37-.15Zm-5.5-3.32,3.39,1.07a.31.31,0,0,0,.19,0l1.49,1.76L542,31l-2.16-.68Zm2.15,3.47,2.5,2.94-3.65-1.15-2.5-2.94Zm-8.41-2.66,3.66,1.15,2.5,2.94-3.66-1.15Zm-1.51,2.33,3.64,1.17,2.42,2.85L532,33.39ZM528,32.74l3.64,1.18,2.5,2.94-3.66-1.15Zm3.24,3.85,3.66,1.15,2.5,2.94-3.66-1.15ZM531,41.46l.29-.34a.3.3,0,0,0,0-.4l-1.54-1.81,3.66,1.15.73.86-1,1.2Zm.9,3.08,1.42-1.7,2.12.68L534,45.22Zm-2.31,10.1,3.25-6.35,1.64.52Zm5.33-6.35-2.12-.67,1.43-1.7,2.12.67Zm.63.2,1.43-1.7,2.12.67-1.43,1.7Zm3,3.75-2.12-.67,1.43-1.7,2.12.67Zm2.77.87-2.12-.66,1.43-1.7,2.12.67ZM544,54l-2.16-.67,1.43-1.7,2.12.67Zm1.85-2.21-2.12-.67,1.43-1.7,2.12.67Zm2.74.86L546.51,52l1.43-1.7,2.07.64h.07Zm.65.21,6-7.12-4,7.75Z" transform="translate(0 0.02)" style="fill: #ebebed"/>
    <path d="M444.23,36.07v.64l2.43.77a.32.32,0,0,0,.37-.15L452.31,27h-.69l-5,9.8Z" transform="translate(0 0.02)" style="fill: #ebebed"/>
    <polygon points="357.04 27.06 357.05 27.04 356.36 27.04 356.35 27.06 357.04 27.06" style="fill: #ebebed"/>
    <path d="M388.42,54.27a.32.32,0,0,0,.37-.15l8.87-17.31,18.55,5.85a.32.32,0,0,0,.37-.15L424.51,27h-.69l-7.67,15L397.6,36.14a.32.32,0,0,0-.37.15L388.66,53v-.5l-.79,1-2.12-.67,1.44-1.72a.3.3,0,0,0,.28-.17l.22-.42,1-1.17V48.6l7.66-15,18.55,5.85a.32.32,0,0,0,.37-.15L421.53,27h-.69l-6,11.75L396.33,32.9h-.06a.3.3,0,0,0-.34.16l-8.73,17-.2.24-2.13-.66,3.82-4.55v-1l-1.91,2.28,8.22-16,18.55,5.85a.32.32,0,0,0,.37-.15l4.63-9h-.69l-4.38,8.53-18.55-5.85a.32.32,0,0,0-.37.15L385.7,47.19,384,46.6l4.62-5.49a.3.3,0,0,0,0-.4l-1.15-1.36,1-2,.25.31v-.79l5-9.78L412.2,33a.32.32,0,0,0,.37-.15l3-5.83h-.69l-2.73,5.32L395.29,27H393l-4.76,9.28-1.38-1.63,1-2,.76.89v-1l-.47-.53,2.61-5.1h-.69l-2.35,4.59-1.43-1.68,1-2,1.31,1.54v-1l-1-1.18.18-.36h-1.25l.35.41-1,2-1.43-1.68.37-.72h-.69l-.11.22-.16-.19h-.81l.65.76-1,2L381.27,28l.56-1.09h-.69l-.31.59-.48-.56h-.8l1,1.15-1,2-1.44-1.69h0l.73-1.43h-.69l-.47.92h-.07l-.74-.86h-.81l.44.51-1.7-.5h-2.19L375,29.89l-3.66-1.17L369.92,27h-.83l1.14,1.34-3.76-1.19-.13-.15h-2.5l2.26.71,2.5,2.94-3.66-1.15-2.1-2.5H362l1.81,2.11-2-.63h-.06a.3.3,0,0,0-.34.16l-.26.5-.35-.42v1l.05.06-.05.1v1.33l.48-.92L362.71,32l-1,2-.91-1.07v1l.6.71-.6,1.17V38l1.2,1.23-1.15,2.25v1.35l1.59-3.08,1,1.16L360.86,44v.94l2.95-3.51-2.95,5.75v1.91L366,43l-4.2,8.19-.94,1.12v2.07l1.46-2.85,7.34-8.75,2.12.67-1.43,1.7-1.88-.59a.32.32,0,0,0-.37.15l-4.11,8-1.78,2.12h1.39l.92-1.78,6.05-7.2,2.12.67-1.43,1.7-1.45-.46a.32.32,0,0,0-.37.15l-3.24,6.33-.5.59h.89l.13-.25,4.75-5.66,2.19.69-1.43,1.7L371.16,51a.32.32,0,0,0-.37.15l-1.9,3.7h1.2L372.45,52l2.12.68-1.43,1.7-.65-.2a.32.32,0,0,0-.37.15l-.25.49h2.64l-.76-.23,1.43-1.7,2.12.67-1.05,1.26h.81l.89-1.07,2.12.67-.34.4h.79l.17-.2.62.2H384l1.29-1.54,2.15.67-.74.87h.8l.57-.67Zm-22.64-3.7,2.77-5.39,1.4.44Zm2.2,1.54,1.9-3.7,1,.31Zm2.07,1.81,1.17-2.29.58.19Zm15.58-6.13-1.42,1.7-2.12-.67,1.43-1.7ZM378,40.71l-1-1.18,3.77,1.22.16.19-1.29,1.54-2.19-.69.55-.65a.32.32,0,0,0,0-.41h0Zm2-.87-3.77-1.19-2.5-2.94,3.77,1.2Zm-1.39-2.6,3.15,1a.32.32,0,0,0,.31-.07l1.44,1.69-.47.92-1.92-.62ZM379.2,43l-1.43,1.7L375.61,44,377,42.3ZM378,45.38l2.12.67-1.43,1.7-2.12-.67Zm2.76.87,2.12.67-1.43,1.7L379.32,48Zm-.21-.71-2.12-.67,1.43-1.7,2.13.65Zm-.26-2.88,1.29-1.54a.23.23,0,0,0,.06-.12l1.48.47a.32.32,0,0,0,.37-.15l.48-.92.46.54-2,2.41Zm4.78-1.54a.3.3,0,0,0,0-.4l-.79-.92,1-2,1.38,1.63L384.36,44l-1.31-.44Zm.08-4.39-1.43-1.68,1-2,1.43,1.68Zm-.31.59-1,2-1.43-1.68,1-2ZM382,37.09l-1.85-2.16.31.1a.3.3,0,0,0,.4-.14l.73-1.43L383,35.13Zm-.43.44-3.66-1.15-2.5-2.94L379,34.59ZM376.77,36,373,34.84l-2.5-2.94,3.77,1.19Zm-1.63,2.28-3.66-1.15L369,34.22l3.66,1.15Zm-4.76-1.5-3.65-1.15-2.5-2.94,3.67,1.15ZM368.82,39l-3-1a.32.32,0,0,0-.36.14l-1.38-1.63.51-1,1.81.57Zm-1.32-2.5,3.64,1.15,2.42,2.85-3.65-1.15Zm4.76,1.5,3.64,1.16,1.47,1.73-.54.65-2.24-.71a.35.35,0,0,0-.06-.14Zm4.16,4L375,43.78l-2.12-.67,1.43-1.7Zm-1.23,2.41,2.19.69L376,46.88l-2.2-.69Zm1,3.11,2.12.67L376.82,50l-2.12-.67Zm2.76.87,2.12.67-1.43,1.7-2.12-.67Zm2.77.87,2.12.66-1.43,1.7L380.25,51ZM388,40.84l-4.62,5.49-2.12-.67L382.6,44l1.8.57a.32.32,0,0,0,.37-.15l2.3-4.5Zm.06-4-1,2-1.38-1.63,1-2Zm-2-6.32,1.43,1.68-1,2L385,32.48Zm-1.85-2.19L385.62,30l-1,2-1.43-1.68Zm-1.32,2.56,1.43,1.68-1,2-1.43-1.68ZM381,28.7l1.43,1.68-1,2L380,30.66Zm-1.52,3,.21-.4L381.12,33l-.73,1.43-1-.31-2.5-2.94,2.21.69a.31.31,0,0,0,.37-.15Zm-5.85-4.37,3.65,1.14,2,2.31-.2.4-2.91-.92Zm2.16,3.47,2.5,2.94-3.66-1.15-2.5-2.94Zm-8.54-2.69L371,29.26l2.5,2.94L369.77,31Zm2.16,3.48,2.47,2.94-3.66-1.15-2.5-2.94Zm-7.76-1.87.25-.49,2.74.86,2.5,2.94-3.66-1.15Zm1.56,2.77,2.42,2.85L364.5,35a.32.32,0,0,0-.37.15l-.51,1-1.43-1.68Zm-.89,6.2L360.91,37l1-2,1.43,1.68Zm.44.51,1-2,1.38,1.63-1,2a.21.21,0,0,0-.06-.1Zm-1.39,8.36,4.19-8.18L366.91,41Zm2.19,1.54L367.2,42l1.83.58Zm5.88-7-2.12-.67.22-.26a.3.3,0,0,0,0-.4l-1.66-2L369.53,40l.85,1Zm.64.2.95-1.13a.3.3,0,0,0,0-.4l-.38-.45,3,.94L372.21,43Zm.9,3.08,1.43-1.7,2.12.67L373.13,46Zm.9,3.08,1.43-1.7,2.19.69-1.43,1.7ZM375,52.18l-2.11-.66,1.43-1.7,2.12.67Zm2.77.88-2.12-.67,1.43-1.7,2.12.67Zm2.75.87-2.14-.68,1.43-1.7,2.12.67Zm2.74.86-2.11-.67,1.42-1.7,2.12.67Zm1.85-2.21L383,51.91l1.43-1.7,2.12.67Z" transform="translate(0 0.02)" style="fill: #ebebed"/>
    <path d="M443,27.66l.31-.65h-.69l-.07.14-.43-.14h-2l2.56.79A.29.29,0,0,0,443,27.66Z" transform="translate(0 0.02)" style="fill: #ebebed"/>
    <path d="M444.23,31V29.78l-.31.59L433.27,27h-2L444,31A.31.31,0,0,0,444.23,31Z" transform="translate(0 0.02)" style="fill: #ebebed"/>
    <polygon points="360.02 27.06 360.04 27.04 359.34 27.04 359.33 27.06 360.02 27.06" style="fill: #ebebed"/>
    <path d="M411.27,29.7l1.38-2.7H412l-1.11,2.18-7-2.18h-2.05l9,2.84a.3.3,0,0,0,.39-.13Z" transform="translate(0 0.02)" style="fill: #ebebed"/>
    <path d="M444.23,33.26v.65l1.1.34a.32.32,0,0,0,.37-.15l3.63-7.1h-.69l-3.37,6.57Z" transform="translate(0 0.02)" style="fill: #ebebed"/>
    <path d="M444.23,31a.4.4,0,0,0,.13-.13l2-3.87h-.69l-1.42,2.77Z" transform="translate(0 0.02)" style="fill: #ebebed"/>
    <path d="M444.23,41.67v.65l5.1,1.61a.32.32,0,0,0,.37-.15L458.28,27h-.69l-8.31,16.23Z" transform="translate(0 0.02)" style="fill: #ebebed"/>
    <path d="M444.23,38.86v.65L448,40.7a.32.32,0,0,0,.37-.15L455.29,27h-.69l-6.66,13Z" transform="translate(0 0.02)" style="fill: #ebebed"/>
    <path d="M461.23,32.32h-.06a.3.3,0,0,0-.34.16L452,49.77l-7.73-2.44V48L452,50.44a.32.32,0,0,0,.37-.15L461.26,33l18.55,5.85a.32.32,0,0,0,.37-.15l6-11.65h-.69l-5.71,11.14Z" transform="translate(0 0.02)" style="fill: #ebebed"/>
    <polygon points="484.84 27.06 484.82 27.04 484.01 27.04 484.03 27.06 484.84 27.06" style="fill: #ebebed"/>
    <polygon points="488.32 27.06 488.3 27.04 487.49 27.04 487.51 27.06 488.32 27.06" style="fill: #ebebed"/>
    <polygon points="481.36 27.06 481.33 27.04 480.52 27.04 480.55 27.06 481.36 27.06" style="fill: #ebebed"/>
    <path d="M477.47,32.14,480.1,27h-.69L477,31.63,462.39,27h-2.05l16.76,5.28A.31.31,0,0,0,477.47,32.14Z" transform="translate(0 0.02)" style="fill: #ebebed"/>
    <polygon points="474.3 27.06 474.28 27.04 473.47 27.04 473.49 27.06 474.3 27.06" style="fill: #ebebed"/>
    <path d="M476.14,28.92l1-1.88h-.66l-.71,1.41L471.27,27h-2.06l6.55,2.06A.3.3,0,0,0,476.14,28.92Z" transform="translate(0 0.02)" style="fill: #ebebed"/>
    <polygon points="495.29 27.06 495.27 27.04 494.46 27.04 494.49 27.06 495.29 27.06" style="fill: #ebebed"/>
    <polygon points="491.81 27.06 491.78 27.04 490.98 27.04 491 27.06 491.81 27.06" style="fill: #ebebed"/>
    <path d="M444.23,50.77l9.13,2.88a.32.32,0,0,0,.37-.15l8.87-17.31L481.15,42a.32.32,0,0,0,.37-.15L489.14,27h-.69L481.1,41.36l-18.55-5.85a.32.32,0,0,0-.37.15L453.31,53l-9.07-2.86-9.48-3a.32.32,0,0,0-.37.15l-3.86,7.54h.69l3.6-7Z" transform="translate(0 0.02)" style="fill: #ebebed"/>
    <polygon points="498.21 27.06 499.8 27.56 499.8 27.06 499.8 27.04 497.94 27.04 497.97 27.06 498.21 27.06" style="fill: #ebebed"/>
    <path d="M459.86,29.08a.32.32,0,0,0-.37.15l-8.87,17.31-6.4-2v.64l6.47,2a.32.32,0,0,0,.37-.15l8.86-17.31,18.55,5.85a.32.32,0,0,0,.37-.15L483.15,27h-.7l-4.06,7.92Z" transform="translate(0 0.02)" style="fill: #ebebed"/>
    <polygon points="555.37 52.93 555.01 53.35 555.37 52.67 555.37 51.32 553.55 54.85 554.25 54.85 554.56 54.85 555.37 53.89 555.37 52.93" style="fill: #ebebed"/>
    <path d="M501.9,53l-1,1.88h.69l.7-1.37,4.35,1.37h2l-6.45-2A.3.3,0,0,0,501.9,53Z" transform="translate(0 0.02)" style="fill: #ebebed"/>
    <polygon points="499.8 51.27 497.96 54.85 498.65 54.85 499.8 52.62 499.8 51.27" style="fill: #ebebed"/>
    <polygon points="556.55 27.06 556.57 27.04 555.87 27.04 555.86 27.06 556.55 27.06" style="fill: #ebebed"/>
    <polygon points="558.71 27.06 558.62 27.04 556.57 27.04 556.66 27.06 558.71 27.06" style="fill: #ebebed"/>
    <path d="M500.57,49.73l-.78,1.51v1.35L501,50.24l14.55,4.59h2.05l-16.67-5.25A.31.31,0,0,0,500.57,49.73Z" transform="translate(0 0.02)" style="fill: #ebebed"/>
    <polygon points="567.59 27.06 567.5 27.04 565.45 27.04 565.54 27.06 567.59 27.06" style="fill: #ebebed"/>
    <path d="M499.8,47.06v-.65l-.19-.06a.32.32,0,0,0-.37.15L495,54.81h.69l4-7.81Z" transform="translate(0 0.02)" style="fill: #ebebed"/>
    <path d="M470.18,54.83h.55l-.24-.08A.32.32,0,0,0,470.18,54.83Z" transform="translate(0 0.02)" style="fill: #ebebed"/>
    <path d="M499.8,44.26v-.65l-1.52-.48a.32.32,0,0,0-.37.15L492,54.83h.69l5.64-11Z" transform="translate(0 0.02)" style="fill: #ebebed"/>
    <path d="M468.82,51.77l-1.57,3.06h.69l1.31-2.55,8.08,2.55h2l-10.18-3.22A.32.32,0,0,0,468.82,51.77Z" transform="translate(0 0.02)" style="fill: #ebebed"/>
    <path d="M499.8,41.54v-.65L497,40a.31.31,0,0,0-.37.15l-7.51,14.68h.69L497,40.66Z" transform="translate(0 0.02)" style="fill: #ebebed"/>
    <path d="M514.19,42.63,499.8,38.09v.65l14.45,4.56a.32.32,0,0,0,.37-.15l8.25-16.1h-.69Z" transform="translate(0 0.02)" style="fill: #ebebed"/>
    <path d="M495.69,37.45l4.09,1.29V38.1l-4.15-1.31a.32.32,0,0,0-.37.15l-8.85,17.31L467.86,48.4a.32.32,0,0,0-.37.15l-3.21,6.28H465L468,49.06l18.29,5.77h.57l.06-.07Z" transform="translate(0 0.02)" style="fill: #ebebed"/>
    <path d="M513.29,39.92,519.89,27h-.69l-6.33,12.37L499.8,35.3V36l13.12,4.14A.35.35,0,0,0,513.29,39.92Z" transform="translate(0 0.02)" style="fill: #ebebed"/>
    <polygon points="578.39 27.06 578.4 27.04 577.71 27.04 577.69 27.06 578.39 27.06" style="fill: #ebebed"/>
    <polygon points="581.37 27.06 581.38 27.04 580.69 27.04 580.68 27.06 581.37 27.06" style="fill: #ebebed"/>
    <polygon points="575.4 27.06 575.42 27.04 574.73 27.04 574.71 27.06 575.4 27.06" style="fill: #ebebed"/>
    <path d="M485.14,51.69a.32.32,0,0,0,.37-.15l8.87-17.31,5.42,1.71v-.65l-5.49-1.73a.32.32,0,0,0-.37.15L485.07,51l-18.55-5.85a.32.32,0,0,0-.37.15l-4.87,9.5H462l4.6-9Z" transform="translate(0 0.02)" style="fill: #ebebed"/>
    <path d="M483.8,48.47a.32.32,0,0,0,.37-.15L493,31l6.76,2.13v-.65L493,30.33a.32.32,0,0,0-.37.15l-8.87,17.31-18.55-5.85a.32.32,0,0,0-.37.15l-6.51,12.72H459l6.25-12.21Z" transform="translate(0 0.02)" style="fill: #ebebed"/>
    <path d="M512,36.7l4.9-9.7h-.69l-4.68,9.15-11.72-3.7v.65l11.79,3.71a.29.29,0,0,0,.39-.09Z" transform="translate(0 0.02)" style="fill: #ebebed"/>
    <path d="M437,53.73l-.56,1.1h.7l.31-.59,1.85.59h2.05l-4-1.26A.32.32,0,0,0,437,53.73Z" transform="translate(0 0.02)" style="fill: #ebebed"/>
    <path d="M510.62,33.49l3.3-6.44h-.69l-3,5.93L499.8,29.7v.65l10.45,3.3A.34.34,0,0,0,510.62,33.49Z" transform="translate(0 0.02)" style="fill: #ebebed"/>
    <path d="M436.11,50.36h-.18a.33.33,0,0,0-.22.16l-2.22,4.32h.69l2-3.81,8.09,2.55,4,1.26h2l-6-1.91Z" transform="translate(0 0.02)" style="fill: #ebebed"/>
    <path d="M482.47,45.25a.32.32,0,0,0,.37-.15l8.85-17.31,8.09,2.55v-.65l-8.15-2.57a.32.32,0,0,0-.37.15l-8.87,17.31-18.55-5.85a.32.32,0,0,0-.37.15l-8.15,15.94H456l7.9-15.43Z" transform="translate(0 0.02)" style="fill: #ebebed"/>
    <path d="M509.28,30.27l1.65-3.22h-.69l-1.39,2.71-8.6-2.71h-.45v.49l9.11,2.87A.31.31,0,0,0,509.28,30.27Z" transform="translate(0 0.02)" style="fill: #ebebed"/>
    <path d="M444.23,48v-.65l-10.82-3.41a.32.32,0,0,0-.37.15l-5.51,10.76h.69l5.24-10.25Z" transform="translate(0 0.02)" style="fill: #ebebed"/>
    <path d="M508,27.05h-.87l.5.15A.32.32,0,0,0,508,27.05Z" transform="translate(0 0.02)" style="fill: #ebebed"/>
    <path d="M404.27,52.3a.32.32,0,0,0-.35.16l-1.21,2.37h.69l1-1.85,5.87,1.85h2l-7.94-2.5Z" transform="translate(0 0.02)" style="fill: #ebebed"/>
    <path d="M444.23,45.17v-.64L432.08,40.7a.32.32,0,0,0-.37.15l-7.15,14h.69l6.89-13.47Z" transform="translate(0 0.02)" style="fill: #ebebed"/>
    <path d="M444.23,42.31v-.64L430.72,37.4a.32.32,0,0,0-.37.15l-8.87,17.28h.71l8.59-16.77Z" transform="translate(0 0.02)" style="fill: #ebebed"/>
    <path d="M402.56,49.17l-2.9,5.66h.69L403,49.67l16.32,5.16h2.05L402.93,49A.31.31,0,0,0,402.56,49.17Z" transform="translate(0 0.02)" style="fill: #ebebed"/>
    <path d="M420.21,52.31a.32.32,0,0,0,.37-.15l8.87-17.31,14.79,4.67v-.65l-14.85-4.68a.32.32,0,0,0-.37.15l-8.87,17.31L401.6,45.8a.32.32,0,0,0-.37.15l-4.55,8.88h.69l4.29-8.37Z" transform="translate(0 0.02)" style="fill: #ebebed"/>
    <path d="M418.87,49.09a.32.32,0,0,0,.37-.15l8.87-17.31,16.12,5.08v-.64L428.05,31a.32.32,0,0,0-.37.15l-8.87,17.31-18.55-5.85a.32.32,0,0,0-.37.15l-6.2,12.1h.68l5.95-11.59Z" transform="translate(0 0.02)" style="fill: #ebebed"/>
    <path d="M417.54,45.87a.32.32,0,0,0,.37-.15l8.87-17.31,17.45,5.5v-.65l-17.51-5.52a.32.32,0,0,0-.37.15L417.48,45.2l-18.55-5.85a.32.32,0,0,0-.37.15l-7.84,15.32h.69L399,40Z" transform="translate(0 0.02)" style="fill: #ebebed"/>
    <polygon points="305.29 53.14 304.41 54.85 305.11 54.85 305.29 54.5 305.29 53.14" style="fill: #ebebed"/>
    <path d="M305.29,49.28v-.65l-.34-.11a.32.32,0,0,0-.37.15l-3.15,6.16h.69L305,49.19Z" transform="translate(0 0.02)" style="fill: #ebebed"/>
    <path d="M305.29,46.48v-.64l-1.68-.53a.31.31,0,0,0-.37.15l-4.79,9.36h.69L303.67,46Z" transform="translate(0 0.02)" style="fill: #ebebed"/>
    <path d="M305.29,43.69V43l-3-.92h-.06a.3.3,0,0,0-.34.16l-6.45,12.57h.69l6.18-12.07Z" transform="translate(0 0.02)" style="fill: #ebebed"/>
    <polygon points="354.06 27.06 354.07 27.04 353.38 27.04 353.37 27.06 354.06 27.06" style="fill: #ebebed"/>
    <path d="M305.29,40.89v-.64L301,38.89h-.06a.3.3,0,0,0-.34.16l-8.08,15.8h.69L301,39.54Z" transform="translate(0 0.02)" style="fill: #ebebed"/>
    <polygon points="351.08 27.06 351.09 27.04 350.4 27.04 350.38 27.06 351.08 27.06" style="fill: #ebebed"/>
    <polygon points="336.92 27.06 336.83 27.04 334.78 27.04 334.87 27.06 336.92 27.06" style="fill: #ebebed"/>
    <polygon points="348.09 27.06 348.11 27.04 347.42 27.04 347.4 27.06 348.09 27.06" style="fill: #ebebed"/>
    <polygon points="345.11 27.06 345.13 27.04 343.65 27.04 343.74 27.06 345.11 27.06" style="fill: #ebebed"/>
    <path d="M241,52.6l-1.14,2.23h.69l.88-1.72,5.44,1.72h2l-7.56-2.38A.28.28,0,0,0,241,52.6Z" transform="translate(0 0.02)" style="fill: #ebebed"/>
    <path d="M176.15,53.37l-.74,1.45h.69l.48-.94,3,.92h2l-5.08-1.6A.32.32,0,0,0,176.15,53.37Z" transform="translate(0 0.02)" style="fill: #ebebed"/>
    <path d="M174.81,50.16l-2.38,4.67h.69l2.13-4.16,13.18,4.16h2L175.19,50A.31.31,0,0,0,174.81,50.16Z" transform="translate(0 0.02)" style="fill: #ebebed"/>
    <polygon points="321.17 27.06 321.15 27.04 320.34 27.04 320.36 27.06 321.17 27.06" style="fill: #ebebed"/>
    <polygon points="323.28 27.06 323.29 27.04 322.6 27.04 322.59 27.06 323.28 27.06" style="fill: #ebebed"/>
    <polygon points="320.3 27.06 320.31 27.04 319.62 27.04 319.61 27.06 320.3 27.06" style="fill: #ebebed"/>
    <polygon points="317.32 27.06 317.69 27.06 317.67 27.04 316.64 27.04 316.63 27.06 317.32 27.06" style="fill: #ebebed"/>
    <polygon points="326.26 27.06 326.27 27.04 325.58 27.04 325.57 27.06 326.26 27.06" style="fill: #ebebed"/>
    <polygon points="331.63 27.06 331.6 27.04 330.8 27.04 330.82 27.06 331.63 27.06" style="fill: #ebebed"/>
    <polygon points="328.14 27.06 328.12 27.04 327.31 27.04 327.33 27.06 328.14 27.06" style="fill: #ebebed"/>
    <polygon points="324.66 27.06 324.63 27.04 323.83 27.04 323.85 27.06 324.66 27.06" style="fill: #ebebed"/>
    <path d="M194.15,27h-.55l-6.51,12.72-18.55-5.85a.32.32,0,0,0-.37.15L159.3,51.37l-18.55-5.85a.32.32,0,0,0-.37.15l-1.79,3.49v1.35l2.21-4.31,18.55,5.85a.32.32,0,0,0,.37-.15l8.86-17.32,18.54,5.85a.32.32,0,0,0,.37-.15L194.26,27h-.11Z" transform="translate(0 0.02)" style="fill: #ebebed"/>
    <polygon points="307.8 27.06 307.71 27.04 305.66 27.04 305.75 27.06 307.8 27.06" style="fill: #ebebed"/>
    <polygon points="305.29 29.07 298.83 27.04 296.78 27.04 305.29 29.71 305.29 29.07" style="fill: #ebebed"/>
    <path d="M280.13,27.88l.44-.86h-.69l-.18.35L278.59,27h-2l3.23,1A.33.33,0,0,0,280.13,27.88Z" transform="translate(0 0.02)" style="fill: #ebebed"/>
    <path d="M277.05,49.56l13.4,4.23a.32.32,0,0,0,.37-.15l8.87-17.31,5.61,1.77v-.65l-5.68-1.79a.32.32,0,0,0-.37.15l-8.87,17.31-12.91-4.06V48l-.68.81-2.12-.67,1.41-1.72,13,4.09a.32.32,0,0,0,.37-.15l8.87-17.31,6.94,2.19v-.64l-7-2.22a.32.32,0,0,0-.37.15L289.06,49.9,276.58,46l.95-1.12v-.73l10.25,3.24a.32.32,0,0,0,.37-.15L297,29.89l8.28,2.61v-.65L297,29.22a.32.32,0,0,0-.37.15l-8.87,17.31-12.05-3.8,1.43-1.7,9.35,3a.32.32,0,0,0,.37-.15l8.69-17h-.69L286.4,43.47l-9.43-3-2.5-2.94,10.66,3.36a.32.32,0,0,0,.37-.15l7-13.74h-.69L285,40.23l-7.54-2.37V37l-1.5-1.8,7.82,2.46a.32.32,0,0,0,.37-.15L289.58,27h-.69l-5.13,10-8.54-2.68-2.5-2.94,3.66,1.15,1.15,1.35V33h0l5,1.57a.32.32,0,0,0,.37-.15l3.74-7.3H286l-3.48,6.77L276.72,32l-2.5-2.94,6.9,2.17a.32.32,0,0,0,.37-.15L283.58,27h-.69l-1.82,3.58-3.54-1.11v-.62L276,27h-.81l2,2.31-3.66-1.15-1-1.15h-.81l.68.8L269.73,27h-2.05l.68.21,2.5,2.94L267.2,29l-1.68-2h-.81l1.38,1.63L263.83,28a.32.32,0,0,0-.37.15l-.2.38L262,27.05h-1l-.95,1.85-1.43-1.68.08-.17h-1l.19.22-1,2-1.38-1.62.34-.66h-.69l-.08.15L255,27h-.81l.62.71-1,2L252.34,28l.52-1h-.69l-.26.51-.42-.49h-.81l.92,1.08-1,2-.87-1v1l.57.67-1,1.94L231.51,27h-1.17l-8.75,17.07-.12.14-2.12-.67,2.05-2.44a.3.3,0,0,0,0-.4l-.23-.27L228.05,27h-.69L222,37.58v-.33l-1.32-1.56,1-2,.31.37v-1L225.06,27h-.68l-2.88,5.62-1.43-1.68,1-2,.87,1v-1l-.57-.67.71-1.38h-.69l-.45.87-.72-.85h-.81l1.23,1.44-1,2-1.43-1.68.9-1.75h-.69l-.64,1.23-1-1.22h-1.32l-.58,1.13-.9-.28-.7-.82h-.81l.4.47-1.59-.5H209l2.37,2.79-3.66-1.15L206.25,27h-.81l1.1,1.29-3.66-1.13-.12-.14h-2.47l2.23.7,2.5,2.94-3.66-1.15-2.09-2.46h-.8l1.8,2.12-1.34-.42a.32.32,0,0,0-.37.15l-.45.88-1.43-1.68.55-1.07h-.69l-.29.56-.46-.53H195l1,1.13-1,2-.82-1v.94l.52.62L188.36,43l-18.55-5.85a.32.32,0,0,0-.37.15l-8.88,17.3L142,48.75a.32.32,0,0,0-.37.15l-3,5.93h.69l2.77-5.42,17.19,5.42h1.87l8.73-17,18.55,5.85a.32.32,0,0,0,.37-.15l6.28-12.26L196.51,33l-1,2-1.37-1.62v1l1.07,1.26-1,2-.06-.08v.2l-4.43,8.62-18.54-5.85a.32.32,0,0,0-.37.15L163.42,54.8h.69L171.19,41l18.54,5.85a.32.32,0,0,0,.37-.15l4.19-8.17,1.43,1.68L191,49.39l-18.55-5.85a.32.32,0,0,0-.37.15l-5.7,11.11h.69l5.43-10.6,18.55,5.85a.32.32,0,0,0,.37-.15l2.94-5.74L197,41.08a.3.3,0,0,0,0-.4l-.5-.59,1-2,1.43,1.68-2.83,5.54-2,2.34v1l.7-.85-2.46,4.8-18.55-5.85a.32.32,0,0,0-.37.15l-4,7.9h.69l3.78-7.39,18.55,5.85a.32.32,0,0,0,.37-.15l3.8-7.42,3.86-4.62a.3.3,0,0,0,0-.4l-.81-1,1-1.94L202,39.45l-3.81,7.45-4.15,5v1l3-3.53-2.77,5.44h.69l3.88-7.56L204,41.09a.3.3,0,0,0,0-.4l-1.13-1.33L203,39l3,1,.78.92-1,1.17-1.54-.49a.32.32,0,0,0-.37.15l-3.43,6.7-5.36,6.37h.81l3.28-3.92-2,3.91h.69l3.08-6,5-6,2.12.67-1.38,1.65-1.18-.38a.32.32,0,0,0-.37.15l-2.73,5.32-3.87,4.62h.8l1.8-2.16L200,54.79h.69L203,50.53l4-4.73,2.12.67-1.43,1.7-.75-.24a.32.32,0,0,0-.37.15l-1.87,3.64-2.57,3.08h.8l.51-.62-.31.62h.69l1.4-2.73,2.68-3.19,2.12.67-1.43,1.7-.31-.1a.32.32,0,0,0-.37.15l-1,2-1.29,1.54h1.19l.62-1.19L208.74,52l2.12.67L209.4,54.4a.36.36,0,0,0-.22.16l-.14.27h1.85l-.83-.26,1.43-1.7,2.12.67-1.09,1.3h.81l.92-1.1,2.12.67-.38.4h.81l.19-.23.71.23h2.58l1.31-1.57,3.88,1.23a.32.32,0,0,0,.37-.15L234.7,37l16.24,5.12-1.28,1.54v.21L236,39.53a.32.32,0,0,0-.37.15l-7.74,15.1h.69L236,40.19l13.61,4.29v.1l.06-.08,2.12.67-1.43,1.7-13.1-4.13a.32.32,0,0,0-.37.15L230.8,54.78h.69l5.83-11.38,12.61,4-.33.39v1l1-1.15,2.12.67L251.29,50l-12.67-4a.32.32,0,0,0-.37.15l-4.44,8.68h.69l4.18-8.15,12.17,3.84L249.62,52v.31l-9.68-3a.32.32,0,0,0-.37.15l-2.78,5.44h.69l2.52-5,9.61,3h0l2.12.67-1,1.23h.81l.87-1,2.12.67-.31.37h.8l.14-.17.53.16h2l-2.16-.68L257,52.39l.23.07a.32.32,0,0,0,.37-.15l.83-1.61,5.88-7L260,52.16l-2.19,2.61h.81l.13-.15-.08.15h.69l1.16-2.27,5.87-7-4.19,8.19-.92,1.08h1l.38-.73,5.88-7-4,7.73h1l5.19-6.2-3.17,6.2H269l5.15-6.14,2.13.68L274.88,51l-1.81-.57a.32.32,0,0,0-.37.15l-2.16,4.19h.69l1.88-3.68,1.32.42-2.72,3.25h.81l2.57-3.06,2.12.67-1.43,1.7-1.37-.43a.32.32,0,0,0-.37.15l-.5,1h.69l.23-.46.88.27-.15.18H278l-1.54-.49,1-1.2V52.5l7.35,2.33h2.05L275.5,51.26Zm-74.76-3.22,2.08-4.06,1,.31Zm2,1.76,1.38-2.69.69.22Zm2.2,1.54.52-1,.26.08Zm70.87-5.58-1.43,1.7-2.12-.67,1.43-1.7Zm-7.19-3.34-2-2.35,3.66,1.14,1.19,1.4-.75.89-2.12-.67h0a.29.29,0,0,0,0-.39Zm-14,0-.9-1.06,1-2,1.43,1.68-3.08,6L253,44.91l3.18-3.79a.3.3,0,0,0,0-.4Zm-3.49,0-1-1.18.33.1a.32.32,0,0,0,.37-.15l.73-1.43,1.43,1.68-1.26,2.46-1.19-.38.59-.71a.27.27,0,0,0,0-.38Zm-2.85-2.41L233.4,33.13a.32.32,0,0,0-.37.15l-8.86,17.31-3-.92.74-.88v-1l-1.38,1.64-2.12-.67,1.38-1.64,3.08,1a.32.32,0,0,0,.37-.15l8.87-17.31,18.55,5.85a.32.32,0,0,0,.37-.15l.22-.42,1.38,1.62-.7,1.44-1-.31-1.19-1.4v.93Zm-44.4-4.1,3.66,1.15,2.5,2.94-3.66-1.15Zm1.39,2.6-3.65-1.15-2.5-2.94,3.66,1.15Zm10.72-2.23L215.69,34l-2.5-2.94,3.05,1a.3.3,0,0,0,.34-.12L218,33.59Zm.92-.47,1.43,1.68-1,2-2.44-2.86,1.14.36a.32.32,0,0,0,.37-.15Zm-.62,3.39-3.66-1.15-2.5-2.94,3.66,1.15Zm-3.52,7.93,2.12.67L215,47.74l-2.12-.67Zm-.21-.71L212,44.05l1.43-1.7,2.12.67Zm3,1.57,2.12.67-1.38,1.64-2.12-.67Zm-.21-.71-2.12-.67,1.43-1.7,2.12.67ZM216,42.5l-2.12-.67.59-.7a.3.3,0,0,0,0-.4l-1-1.19,3.66,1.15.2.23Zm-3.27-3.84-2.5-2.94,3.66,1.15,2.49,3Zm.4-2.68-3.65-1.15L207,31.89,210.59,33Zm-.76,3.21,1.48,1.73-.59.7L211,40.93a.31.31,0,0,0-.07-.21L208.68,38Zm.46,2.94-1.43,1.7-2.12-.67,1.43-1.7Zm-1.23,2.42,2.12.67-1.38,1.65-2.12-.67Zm.94,3,2.12.67-1.43,1.7-2.12-.67Zm2.76.87,2.12.67L216,50.81l-2.12-.67Zm2.77.87,2.11.67-1.43,1.7L216.59,51Zm33.57-14,1-2L254,35l-1,2Zm1.81,2.13,1-2,1.43,1.68-1,2Zm8.78-1-1,2-1.43-1.68,1-2Zm-1.13-2.28,1-2,1.4,1.68-1,2Zm-1.74,2-1.43-1.68,1-2,1.43,1.69Zm-.31.6-1,2-1.43-1.68,1-2Zm-2.86-.23-1.43-1.68,1-2,1.43,1.68Zm2,3.29.88,1-3.61,4.31ZM259.7,41a.3.3,0,0,0,0-.4l-1.21-1.43,1-2,1.39,1.8L256,48.63,253.89,48Zm1.66-1.6,1.19,1.4-4.9,5.85Zm.31-.59,1-2,1.43,1.68-1,2Zm1.3-2.56,1-2L265.39,36l-1,2Zm4.93-1.54-1.33-.42a.31.31,0,0,0-.37.15l-.45.88-1.43-1.68,1-1.91h.1Zm-1.4-2.59,3.65,1.15,2.5,2.94L269,35.09Zm-.61,4.31,1.43,1.68-1,2-1.43-1.68Zm.31-.6.45-.88,2,.64,2.5,2.94-3.25-1a.3.3,0,0,0-.26,0Zm6.37,6.59,2.12.67-1.43,1.7-2.12-.67Zm2.55.16L273,42l.75-.89a.3.3,0,0,0,0-.4l-.72-.85L276.5,41Zm.77-2.57-3.71-1-2.5-3,3.66,1.16Zm1.52-2.31-3.66-1.15-2.5-2.94,3.66,1.15Zm-7.9-10.24,3.65,1.16,2.5,2.94L272,30.53ZM271.66,31l2.5,2.94-3.66-1.15L268,29.9ZM264,28.53l2.94.92,2.49,3-3.66-1.15-2-2.34Zm-.5,1,1.44,1.69h0l-1,1.91-1.43-1.68Zm-1.85-2.19L263,29.09l-1,2-1.43-1.68ZM260.25,30l1.4,1.68-1,2L259.18,32Zm-1.84-2.18,1.4,1.68-1,2-1.43-1.68ZM257,30.4l1.43,1.68-1,2L256,32.36Zm-1.81-2.14,1.38,1.63-1,2-1.38-1.63Zm-1.31,2.56,1.37,1.61-1,2-1.38-1.62ZM252,28.63l1.43,1.68-1,2L251,30.63Zm-30.3,16.28a.31.31,0,0,0,.24-.16l8.87-17.31,18.55,5.85a.32.32,0,0,0,.37-.15l1-1.94,1.43,1.68-1,2-1.42-1.67v.95l1.12,1.31-.21.42L232.09,30a.32.32,0,0,0-.37.15l-8.87,17.31-2.59-.82Zm-.66-.17-1.43,1.7-2.12-.67,1.43-1.7Zm-2.32-1.38-2.12-.67L218,41.12a.24.24,0,0,0,0-.12l2.16.68ZM220.21,41l-2.74-.87L215,37.21l3.65,1.15,1.85,2.16Zm1.53-3-1,2-1.43-1.68,1-2Zm-2-6.42,1.43,1.68-1,2-1.43-1.68Zm-1.85-2.19L219.35,31l-1,2-1.43-1.68Zm-3-.55a.32.32,0,0,0,.37-.15l.76-1.48,1.43,1.68-1,2-1.76-2.07Zm-5-1.57,3.65,1.15,2.5,2.94-3.66-1.15ZM212,30.75l2.47,2.94-3.65-1.15-2.5-2.94Zm-8.41-2.65,3.65,1.15,2.5,2.94L206.2,31Zm2.16,3.47,2.5,2.94-3.66-1.15-2.5-2.94ZM199,29.41l2,.64,2.5,2.94-3.26-1a.39.39,0,0,0-.26,0l-1.52-1.7Zm-.75,1.47,1.43,1.68-1,2-1.43-1.68Zm-2.87-.23,1-2,1.43,1.68-1,2Zm.29,11.09.51-1,.17.19Zm.39-2.11L194.64,38l1-2L197,37.66Zm1.3-2.55L196,35.37l1-1.94,1.43,1.68Zm2.47,3.85-2,2.34,1.49-2.91Zm-.62-1.67-1.43-1.68,1-1.94,1.43,1.68Zm1.31-2.55L199.17,35l1-2,1.91,2.25-.42-.13a.32.32,0,0,0-.37.15Zm2.78,4.22-3.26,3.89L202.58,40ZM203,38.37a.32.32,0,0,0-.37.15l-.18.34L201,37.18l.7-1.37,1.11.35,2.46,3Zm3.44,1.08-2.5-2.94,3.65,1.15,2.5,2.94Zm.07,2.82,1-1.18a.3.3,0,0,0,0-.4l-.31-.36,2.87.9-1.43,1.7Zm.94,3,1.38-1.65,2.12.67L209.54,46Zm.9,3.08,1.43-1.7,2.12.67L210.47,49Zm3,3.76-2.12-.67,1.43-1.7,2.12.67Zm2.76.87L212,52.34l1.43-1.7,2.12.67Zm2.77.87-2.12-.67,1.41-1.68,2.12.67Zm2.73.88-2.12-.67,1.43-1.7L221,53Zm15.16-18.4h-.06a.3.3,0,0,0-.34.16L225.5,53.8,222,52.69V52l-.48.57-2.12-.67,1.43-1.7,3.44,1.08a.32.32,0,0,0,.37-.15l8.87-17.31,17.12,5.41L252.1,41l-.59.7ZM250.22,44l1.43-1.7,1.68.53a.32.32,0,0,0,.37-.15l1.3-2.42.57.67-3.18,3.78Zm.9,3.08,1.43-1.7,2.11.67h0l-1.43,1.71Zm2.33,1.38,2.12.67-1.43,1.7L252,50.2ZM252.28,53l-2.12-.67,1.43-1.7,2.12.67ZM255,54l-2.12-.67,1.43-1.7,2.12.67Zm3-3.54-1.11,1.33-2.12-.67,7.42-8.85Zm1.77-2.12,4.68-9.15,1.43,1.68-.24.47Zm2.06,1.81,4.33-8.46.44-.52a.32.32,0,0,0,0-.37l1-2,1.88,2.2h0l-.36-.11a.32.32,0,0,0-.37.15l-1.09,2.12ZM264,51.64l4.19-8.19,1.5-1.79,2.12.67-1.44,1.72a.32.32,0,0,0-.28.16l-.22.44Zm2.2,1.54,4.2-8.2.2-.24,2.11.67Zm2.19,1.54,3.5-6.72,1.75.55ZM274.08,48,272,47.32l1.43-1.7,2.12.67Z" transform="translate(0 0.02)" style="fill: #ebebed"/>
    <path d="M248.41,29.92,249.9,27h-.69L248,29.41,240.39,27h-2l9.7,3.06A.32.32,0,0,0,248.41,29.92Z" transform="translate(0 0.02)" style="fill: #ebebed"/>
    <polygon points="313.64 27.06 314.33 27.06 314.35 27.04 313.37 27.04 313.4 27.06 313.64 27.06" style="fill: #ebebed"/>
    <polygon points="310.72 27.06 310.7 27.04 309.89 27.04 309.91 27.06 310.72 27.06" style="fill: #ebebed"/>
    <path d="M143,52.12l-1.39,2.71h.69l1.12-2.2,7,2.2h2.05L143.4,52A.31.31,0,0,0,143,52.12Z" transform="translate(0 0.02)" style="fill: #ebebed"/>
    <path d="M158,48.82a.32.32,0,0,0,.37-.15l8.87-17.31,18.55,5.85a.32.32,0,0,0,.37-.15l5.13-10h-.69l-4.86,9.5L167.2,30.7a.32.32,0,0,0-.37.15L158,48.16l-18.55-5.85a.32.32,0,0,0-.37.15l-.45.89V44.7l.88-1.72Z" transform="translate(0 0.02)" style="fill: #ebebed"/>
    <path d="M110.8,51.44v-.65l-.55-.17a.32.32,0,0,0-.37.15l-2.08,4.06h.69l1.81-3.54Z" transform="translate(0 0.02)" style="fill: #ebebed"/>
    <path d="M157,45.36l8.86-17.31,18.55,5.85a.32.32,0,0,0,.37-.15L188.23,27h-.69l-3.19,6.2L165.8,27.39a.32.32,0,0,0-.37.15l-8.87,17.31-18-5.68v.64l18.07,5.7A.3.3,0,0,0,157,45.36Z" transform="translate(0 0.02)" style="fill: #ebebed"/>
    <path d="M138.58,36.38V37l16.73,5.28a.32.32,0,0,0,.37-.15L163.43,27h-.69l-7.49,14.62Z" transform="translate(0 0.02)" style="fill: #ebebed"/>
    <path d="M110.8,48.64V48l-1.88-.59a.32.32,0,0,0-.37.15l-3.73,7.27h.69L109,48.06Z" transform="translate(0 0.02)" style="fill: #ebebed"/>
    <path d="M183.46,30.54l1.79-3.49h-.69L183,30l-9.45-3h-2l11.57,3.65A.31.31,0,0,0,183.46,30.54Z" transform="translate(0 0.02)" style="fill: #ebebed"/>
    <path d="M138.58,33.58v.65L154,39.09a.32.32,0,0,0,.37-.15L160.45,27h-.69l-5.85,11.39Z" transform="translate(0 0.02)" style="fill: #ebebed"/>
    <path d="M110.8,45.84V45.2l-3.21-1a.32.32,0,0,0-.37.15l-5.37,10.49h.69l5.11-10Z" transform="translate(0 0.02)" style="fill: #ebebed"/>
    <path d="M182.13,27.31l.14-.27h-1.85l1.35.42A.3.3,0,0,0,182.13,27.31Z" transform="translate(0 0.02)" style="fill: #ebebed"/>
    <path d="M138.58,30.78v.65l14.06,4.44a.32.32,0,0,0,.37-.15l4.47-8.7h-.69l-4.19,8.19Z" transform="translate(0 0.02)" style="fill: #ebebed"/>
    <path d="M110.8,43v-.6L106.25,41a.32.32,0,0,0-.37.15l-7,13.71h.69l6.76-13.2Z" transform="translate(0 0.02)" style="fill: #ebebed"/>
    <polygon points="83.02 54.68 83.55 54.85 85.6 54.85 83.02 54.04 83.02 54.68" style="fill: #ebebed"/>
    <polygon points="135.59 27.06 135.5 27.04 133.45 27.04 133.54 27.06 135.59 27.06" style="fill: #ebebed"/>
    <polygon points="132.64 27.06 132.65 27.04 131.96 27.04 131.95 27.06 132.64 27.06" style="fill: #ebebed"/>
    <path d="M138.58,28v.64l12.74,4a.32.32,0,0,0,.37-.15l2.8-5.46h-.69l-2.54,5Z" transform="translate(0 0.02)" style="fill: #ebebed"/>
    <path d="M110.8,40.25V39.6l-5.88-1.85a.32.32,0,0,0-.37.15L95.88,54.84h.69L105,38.42Z" transform="translate(0 0.02)" style="fill: #ebebed"/>
    <polygon points="83.02 51.88 92.43 54.85 94.48 54.85 83.02 51.23 83.02 51.88" style="fill: #ebebed"/>
    <polygon points="129.65 27.06 129.67 27.04 128.98 27.04 128.97 27.06 129.65 27.06" style="fill: #ebebed"/>
    <path d="M150.35,29.27,151.51,27h-.69l-.9,1.75L144.38,27h-2L150,29.42A.29.29,0,0,0,150.35,29.27Z" transform="translate(0 0.02)" style="fill: #ebebed"/>
    <path d="M94.78,52.5l8.87-17.3,7.15,2.25V36.8l-7.21-2.27a.32.32,0,0,0-.37.15L94.35,52,83,48.42v.63l11.4,3.59A.3.3,0,0,0,94.78,52.5Z" transform="translate(0 0.02)" style="fill: #ebebed"/>
    <path d="M93.45,49.28,102.32,32l8.48,2.68V34l-8.55-2.69a.32.32,0,0,0-.37.15L93,48.77,83,45.62v.65l10.07,3.17A.31.31,0,0,0,93.45,49.28Z" transform="translate(0 0.02)" style="fill: #ebebed"/>
    <polygon points="126.68 27.06 126.69 27.04 126 27.04 125.98 27.06 126.68 27.06" style="fill: #ebebed"/>
    <polygon points="123.69 27.06 123.71 27.04 123.02 27.04 123 27.06 123.69 27.06" style="fill: #ebebed"/>
    <path d="M92.12,46.07,101,28.76l9.82,3.09V31.2L101,28.1h-.06a.3.3,0,0,0-.34.16L91.69,45.55,83,42.81v.65l8.73,2.75A.31.31,0,0,0,92.12,46.07Z" transform="translate(0 0.02)" style="fill: #ebebed"/>
    <polygon points="120.79 27.06 120.8 27.04 120.11 27.04 120.09 27.06 120.79 27.06" style="fill: #ebebed"/>
    <polygon points="117.8 27.06 117.82 27.04 117.13 27.04 117.11 27.06 117.8 27.06" style="fill: #ebebed"/>
    <polygon points="115.13 27.06 115.04 27.04 112.99 27.04 113.08 27.06 115.13 27.06" style="fill: #ebebed"/>
    <path d="M86.82,33.27,90,27h-.69L86.4,32.76,83,31.7v.65l3.43,1.08A.33.33,0,0,0,86.82,33.27Z" transform="translate(0 0.02)" style="fill: #ebebed"/>
    <path d="M90.82,42.93,99,27h-.69L90.42,42.4,83,40.09v.66l7.43,2.34A.33.33,0,0,0,90.82,42.93Z" transform="translate(0 0.02)" style="fill: #ebebed"/>
    <polygon points="110.8 28.5 106.16 27.04 104.11 27.04 110.8 29.14 110.8 28.5" style="fill: #ebebed"/>
    <path d="M85.48,30.05,87,27h-.69L85,29.54l-2-.65v.65l2.1.66A.3.3,0,0,0,85.48,30.05Z" transform="translate(0 0.02)" style="fill: #ebebed"/>
    <path d="M89.48,39.71,96,27h-.69L89.05,39.2l-6-1.9v.64l6.1,1.92A.3.3,0,0,0,89.48,39.71Z" transform="translate(0 0.02)" style="fill: #ebebed"/>
    <path d="M88.15,36.49,93,27h-.69l-4.59,9L83,34.5v.65l4.77,1.5A.31.31,0,0,0,88.15,36.49Z" transform="translate(0 0.02)" style="fill: #ebebed"/>
  </g>
</svg>
